<?xml version="1.0" encoding="UTF-8"?>
<svg width="20px" height="20px" viewBox="0 0 20 20" version="1.1" xmlns="http://www.w3.org/2000/svg" xmlns:xlink="http://www.w3.org/1999/xlink">
    <title>search-line</title>
    <g id="icon" stroke="none" stroke-width="1" fill="none" fill-rule="evenodd">
        <g id="Artboard" transform="translate(-296.000000, -137.000000)">
            <g id="search-line" transform="translate(296.000000, 137.000000)">
                <path d="M14.5794608,13.4704412 L17.9386765,16.8288726 L16.8288726,17.9386765 L13.4704412,14.5794608 C12.2208241,15.5812028 10.6665204,16.1260531 9.06495097,16.1237745 C5.16848039,16.1237745 2.00612744,12.9614216 2.00612744,9.06495097 C2.00612744,5.16848039 5.16848039,2.00612744 9.06495097,2.00612744 C12.9614216,2.00612744 16.1237745,5.16848039 16.1237745,9.06495097 C16.1260531,10.6665204 15.5812028,12.2208241 14.5794608,13.4704412 L14.5794608,13.4704412 Z M13.0061274,12.8884804 C14.0015101,11.8648613 14.5573957,10.4927386 14.5551539,9.06495097 C14.5551539,6.03122548 12.0978922,3.57475491 9.06495097,3.57475491 C6.03122548,3.57475491 3.57475491,6.0312255 3.57475491,9.06495097 C3.57475491,12.0978922 6.0312255,14.5551539 9.06495097,14.5551539 C10.4927386,14.5573957 11.8648613,14.0015101 12.8884804,13.0061274 L13.0061274,12.8884804 Z" id="Shape" fill="#FFFFFF" fill-rule="nonzero"></path>
                <rect id="Rectangle-Copy-29" x="0" y="0" width="20" height="20"></rect>
            </g>
        </g>
    </g>
</svg>