<?xml version="1.0" encoding="UTF-8"?>
<svg width="22px" height="22px" viewBox="0 0 22 22" version="1.1" xmlns="http://www.w3.org/2000/svg" xmlns:xlink="http://www.w3.org/1999/xlink">
    <title>sentiment_satisfied_alt-24px</title>
    <g id="icon" stroke="none" stroke-width="1" fill="none" fill-rule="evenodd">
        <g id="Artboard" transform="translate(-73.000000, -172.000000)">
            <g id="sentiment_satisfied_alt-24px" transform="translate(73.000000, 172.000000)">
                <polygon id="Path" points="0 0 22 0 22 22 0 22"></polygon>
                <circle id="Oval" fill="#969696" fill-rule="nonzero" cx="14.2083333" cy="8.70833333" r="1.375"></circle>
                <circle id="Oval" fill="#969696" fill-rule="nonzero" cx="7.79166667" cy="8.70833333" r="1.375"></circle>
                <path d="M11,14.6666667 C9.64333333,14.6666667 8.47916667,13.9241667 7.8375,12.8333333 L6.30666667,12.8333333 C7.04,14.7125 8.86416667,16.0416667 11,16.0416667 C13.1358333,16.0416667 14.96,14.7125 15.6933333,12.8333333 L14.1625,12.8333333 C13.53,13.9241667 12.3566667,14.6666667 11,14.6666667 Z M10.9908333,1.83333333 C5.93083333,1.83333333 1.83333333,5.94 1.83333333,11 C1.83333333,16.06 5.93083333,20.1666667 10.9908333,20.1666667 C16.06,20.1666667 20.1666667,16.06 20.1666667,11 C20.1666667,5.94 16.06,1.83333333 10.9908333,1.83333333 Z M11,18.3333333 C6.94833333,18.3333333 3.66666667,15.0516667 3.66666667,11 C3.66666667,6.94833333 6.94833333,3.66666667 11,3.66666667 C15.0516667,3.66666667 18.3333333,6.94833333 18.3333333,11 C18.3333333,15.0516667 15.0516667,18.3333333 11,18.3333333 Z" id="Shape" fill="#969696" fill-rule="nonzero"></path>
            </g>
        </g>
    </g>
</svg>