<?xml version="1.0" encoding="UTF-8"?>
<svg width="22px" height="22px" viewBox="0 0 22 22" version="1.1" xmlns="http://www.w3.org/2000/svg" xmlns:xlink="http://www.w3.org/1999/xlink">
    <title>contact_fill</title>
    <g id="icon" stroke="none" stroke-width="1" fill="none" fill-rule="evenodd">
        <g id="Artboard" transform="translate(-123.000000, -59.000000)">
            <g id="contact_fill" transform="translate(123.000000, 59.000000)">
                <g id="perm_contact_calendar-24px-(1)">
                    <polygon id="Path" points="0 0 22 0 22 22 0 22"></polygon>
                    <path d="M17.4166667,2.75 L16.5,2.75 L16.5,0.916666667 L14.6666667,0.916666667 L14.6666667,2.75 L7.33333333,2.75 L7.33333333,0.916666667 L5.5,0.916666667 L5.5,2.75 L4.58333333,2.75 C3.56583333,2.75 2.75,3.575 2.75,4.58333333 L2.75,17.4166667 C2.75,18.425 3.56583333,19.25 4.58333333,19.25 L17.4166667,19.25 C18.425,19.25 19.25,18.425 19.25,17.4166667 L19.25,4.58333333 C19.25,3.575 18.425,2.75 17.4166667,2.75 Z M11,5.5 C12.5216667,5.5 13.75,6.72833333 13.75,8.25 C13.75,9.77166667 12.5216667,11 11,11 C9.47833333,11 8.25,9.77166667 8.25,8.25 C8.25,6.72833333 9.47833333,5.5 11,5.5 Z M16.5,16.5 L5.5,16.5 L5.5,15.5833333 C5.5,13.75 9.16666667,12.7416667 11,12.7416667 C12.8333333,12.7416667 16.5,13.75 16.5,15.5833333 L16.5,16.5 Z" id="Shape" fill="#29194F" fill-rule="nonzero"></path>
                </g>
                <rect id="Rectangle" x="0" y="0" width="22" height="22"></rect>
            </g>
        </g>
    </g>
</svg>