<?xml version="1.0" encoding="UTF-8"?>
<svg width="20px" height="20px" viewBox="0 0 20 20" version="1.1" xmlns="http://www.w3.org/2000/svg" xmlns:xlink="http://www.w3.org/1999/xlink">
    <title>person_add_alt_1-24px</title>
    <g id="icon" stroke="none" stroke-width="1" fill="none" fill-rule="evenodd">
        <g id="Artboard" transform="translate(-570.000000, -137.000000)">
            <g id="person_add_alt_1-24px" transform="translate(570.000000, 137.000000)">
                <rect id="Rectangle" x="0" y="0" width="20" height="20"></rect>
                <path d="M10.8333333,6.66666667 C10.8333333,4.825 9.34166667,3.33333333 7.5,3.33333333 C5.65833333,3.33333333 4.16666667,4.825 4.16666667,6.66666667 C4.16666667,8.50833333 5.65833333,10 7.5,10 C9.34166667,10 10.8333333,8.50833333 10.8333333,6.66666667 Z M9.16666667,6.66666667 C9.16666667,7.58333333 8.41666667,8.33333333 7.5,8.33333333 C6.58333333,8.33333333 5.83333333,7.58333333 5.83333333,6.66666667 C5.83333333,5.75 6.58333333,5 7.5,5 C8.41666667,5 9.16666667,5.75 9.16666667,6.66666667 Z M0.833333333,15 L0.833333333,16.6666667 L14.1666667,16.6666667 L14.1666667,15 C14.1666667,12.7833333 9.725,11.6666667 7.5,11.6666667 C5.275,11.6666667 0.833333333,12.7833333 0.833333333,15 Z M2.5,15 C2.66666667,14.4083333 5.25,13.3333333 7.5,13.3333333 C9.74166667,13.3333333 12.3166667,14.4 12.5,15 L2.5,15 Z M16.6666667,12.5 L16.6666667,10 L19.1666667,10 L19.1666667,8.33333333 L16.6666667,8.33333333 L16.6666667,5.83333333 L15,5.83333333 L15,8.33333333 L12.5,8.33333333 L12.5,10 L15,10 L15,12.5 L16.6666667,12.5 Z" id="Shape" fill="#666666" fill-rule="nonzero"></path>
            </g>
        </g>
    </g>
</svg>