<?xml version="1.0" encoding="UTF-8"?>
<svg width="22px" height="22px" viewBox="0 0 22 22" version="1.1" xmlns="http://www.w3.org/2000/svg" xmlns:xlink="http://www.w3.org/1999/xlink">
    <title>change</title>
    <g id="icon" stroke="none" stroke-width="1" fill="none" fill-rule="evenodd">
        <g id="Artboard" transform="translate(-469.000000, -172.000000)" fill-rule="nonzero">
            <g id="change" transform="translate(469.000000, 172.000000)">
                <rect id="Rectangle" fill="#000000" opacity="0" x="0" y="0" width="22" height="22"></rect>
                <path d="M3.4729824,9.21432807 L18.5284993,9.21432807 C18.9220139,9.21432807 19.1147882,8.62007328 18.8312028,8.2807267 L14.5375924,3.18574859 C14.2603798,2.85596108 13.7983586,3.09812389 13.7983586,3.57607681 L13.7983586,6.50752138 C13.7983586,6.80544537 13.6039911,7.04920134 13.3618283,7.04920134 L3.4729824,7.04920134 C3.23081959,7.04920134 3.03645206,7.29136415 3.03645206,7.59088133 L3.03645206,8.67424127 C3.03645206,8.97216526 3.23081959,9.21592124 3.4729824,9.21592124 L3.4729824,9.21432807 Z M18.5284993,12.7846364 L3.4729824,12.7846364 C3.07946782,12.7846364 2.8851003,13.3788912 3.17027888,13.7182377 L7.46388927,18.814809 C7.73950879,19.1430034 8.20152995,18.8992474 8.20152993,18.4228876 L8.20152993,15.4930362 C8.20152993,15.1951123 8.39749062,14.9513563 8.63965345,14.9513563 L18.5300925,14.9513563 C18.7722553,14.9513563 18.9666228,14.7091934 18.9666228,14.4096763 L18.9666228,13.3263163 C18.9650297,13.0283924 18.7690689,12.7846364 18.5284993,12.7846364 L18.5284993,12.7846364 Z" id="Shape" fill="#70757B"></path>
            </g>
        </g>
    </g>
</svg>