<?xml version="1.0" encoding="UTF-8"?>
<svg width="20px" height="20px" viewBox="0 0 20 20" version="1.1" xmlns="http://www.w3.org/2000/svg" xmlns:xlink="http://www.w3.org/1999/xlink">
    <title>group-24px (2)</title>
    <g id="icon" stroke="none" stroke-width="1" fill="none" fill-rule="evenodd">
        <g id="Artboard" transform="translate(-104.000000, -137.000000)">
            <g id="group-24px-(2)" transform="translate(104.000000, 137.000000)">
                <polygon id="Path" points="0 0 20 0 20 20 0 20"></polygon>
                <path d="M13.3333333,9.16666667 C14.7166667,9.16666667 15.825,8.05 15.825,6.66666667 C15.825,5.28333333 14.7166667,4.16666667 13.3333333,4.16666667 C11.95,4.16666667 10.8333333,5.28333333 10.8333333,6.66666667 C10.8333333,8.05 11.95,9.16666667 13.3333333,9.16666667 Z M6.66666667,9.16666667 C8.05,9.16666667 9.15833333,8.05 9.15833333,6.66666667 C9.15833333,5.28333333 8.05,4.16666667 6.66666667,4.16666667 C5.28333333,4.16666667 4.16666667,5.28333333 4.16666667,6.66666667 C4.16666667,8.05 5.28333333,9.16666667 6.66666667,9.16666667 Z M6.66666667,10.8333333 C4.725,10.8333333 0.833333333,11.8083333 0.833333333,13.75 L0.833333333,15.8333333 L12.5,15.8333333 L12.5,13.75 C12.5,11.8083333 8.60833333,10.8333333 6.66666667,10.8333333 Z M13.3333333,10.8333333 C13.0916667,10.8333333 12.8166667,10.85 12.525,10.875 C13.4916667,11.575 14.1666667,12.5166667 14.1666667,13.75 L14.1666667,15.8333333 L19.1666667,15.8333333 L19.1666667,13.75 C19.1666667,11.8083333 15.275,10.8333333 13.3333333,10.8333333 Z" id="Shape" fill="#383F45" fill-rule="nonzero"></path>
            </g>
        </g>
    </g>
</svg>