<?xml version="1.0" encoding="UTF-8"?>
<svg width="20px" height="20px" viewBox="0 0 20 20" version="1.1" xmlns="http://www.w3.org/2000/svg" xmlns:xlink="http://www.w3.org/1999/xlink">
    <title>notifications-24px (1)</title>
    <g id="icon" stroke="none" stroke-width="1" fill="none" fill-rule="evenodd">
        <g id="Artboard" transform="translate(-395.000000, -137.000000)">
            <g id="notifications-24px-(1)" transform="translate(395.000000, 137.000000)">
                <polygon id="Path" points="0 0 20 0 20 20 0 20"></polygon>
                <path d="M10,18.3333333 C10.9166667,18.3333333 11.6666667,17.5833333 11.6666667,16.6666667 L8.33333333,16.6666667 C8.33333333,17.5833333 9.08333333,18.3333333 10,18.3333333 Z M15,13.3333333 L15,9.16666667 C15,6.60833333 13.6416667,4.46666667 11.25,3.9 L11.25,3.33333333 C11.25,2.64166667 10.6916667,2.08333333 10,2.08333333 C9.30833333,2.08333333 8.75,2.64166667 8.75,3.33333333 L8.75,3.9 C6.36666667,4.46666667 5,6.6 5,9.16666667 L5,13.3333333 L3.33333333,15 L3.33333333,15.8333333 L16.6666667,15.8333333 L16.6666667,15 L15,13.3333333 Z M13.3333333,14.1666667 L6.66666667,14.1666667 L6.66666667,9.16666667 C6.66666667,7.1 7.925,5.41666667 10,5.41666667 C12.075,5.41666667 13.3333333,7.1 13.3333333,9.16666667 L13.3333333,14.1666667 Z" id="Shape" fill="#666666" fill-rule="nonzero"></path>
            </g>
        </g>
    </g>
</svg>