<?xml version="1.0" encoding="UTF-8"?>
<svg width="16px" height="16px" viewBox="0 0 16 16" version="1.1" xmlns="http://www.w3.org/2000/svg" xmlns:xlink="http://www.w3.org/1999/xlink">
    <title>contact-16px</title>
    <g id="icon" stroke="none" stroke-width="1" fill="none" fill-rule="evenodd">
        <g id="Artboard" transform="translate(-65.000000, -243.000000)">
            <g id="contact-16px" transform="translate(65.000000, 243.000000)">
                <path d="M12.4777126,0.5625 C13.1162944,0.5625 13.696465,0.824343604 14.1172247,1.24510333 C14.4959084,1.62378709 14.7458701,2.13159364 14.7920756,2.6948942 L14.799828,2.88461538 L14.799828,12.1153846 C14.799828,12.7539663 14.5379844,13.3341369 14.1172247,13.7548967 C13.7385409,14.1335804 13.2307344,14.3835421 12.6674338,14.4297476 L12.4777126,14.4375 L4.40078956,14.4375 C3.76220783,14.4375 3.18203724,14.1756564 2.76127751,13.7548967 C2.38259375,13.3762129 2.13263206,12.8684064 2.08642655,12.3051058 L2.07867417,12.1153846 L2.07867417,9.82211538 L1.849,9.822 L2.07867417,9.36355747 L2.07867417,5.20673077 L1.849,5.206 L2.07867417,4.74817285 L2.07867417,2.88461538 C2.07867417,2.24603365 2.34051778,1.66586306 2.76127751,1.24510333 C3.13996126,0.866419577 3.64776782,0.616457882 4.21106837,0.570252381 L4.40078956,0.5625 L12.4777126,0.5625 Z M12.4777126,0.591346154 L4.40078956,0.591346154 L4.21340497,0.598968773 C3.65698438,0.644407503 3.15488708,0.890311192 2.78068622,1.26451205 C2.36490749,1.68029078 2.10752033,2.25396635 2.10752033,2.88461538 L2.10752033,2.88461538 L2.10752033,4.74817285 L2.336,5.206 L2.10752033,5.20673077 L2.10752033,9.36355747 L2.336,9.822 L2.10752033,9.82211538 L2.10752033,12.1153846 L2.11514295,12.3027692 C2.16058168,12.8591898 2.40648537,13.3612871 2.78068622,13.7354879 C3.19646496,14.1512667 3.77014052,14.4086538 4.40078956,14.4086538 L4.40078956,14.4086538 L12.4777126,14.4086538 L12.6650972,14.4010312 C13.2215178,14.3555925 13.7236151,14.1096888 14.097816,13.7354879 C14.5135947,13.3197092 14.7709819,12.7460337 14.7709819,12.1153846 L14.7709819,12.1153846 L14.7709819,2.88461538 L14.7633592,2.6972308 C14.7179205,2.1408102 14.4720168,1.63871291 14.097816,1.26451205 C13.6820372,0.848733319 13.1083617,0.591346154 12.4777126,0.591346154 L12.4777126,0.591346154 Z M11.8600131,11.2092236 C11.6786202,11.3906165 11.4383901,11.5135358 11.1711364,11.5449537 L11.0354049,11.5528846 L6.42002033,11.5528846 C6.37132121,11.5528846 6.3233014,11.5498508 6.27613686,11.543966 L12.0850806,10.8950301 C12.0276396,11.0119399 11.9512177,11.118019 11.8600131,11.2092236 Z M8.72771264,3.44711538 C9.20764052,3.44711538 9.64358034,3.64405514 9.95977276,3.96024756 C10.2759652,4.27643999 10.4729049,4.71237981 10.4729049,5.19230769 C10.4729049,5.60946869 10.3147224,5.9805515 10.0738701,6.28709076 C9.84435188,6.57920486 9.54012427,6.8122453 9.16140225,6.91892285 C9.55500109,6.92140886 9.9392723,6.99715493 10.2918907,7.15046729 C10.8579043,7.39656014 11.3333834,7.83860506 11.6683781,8.39692963 C12.0082158,8.96332566 12.2036742,9.64966621 12.2036742,10.3846154 C12.2036742,10.5338748 12.1751755,10.6767528 12.1234374,10.8081837 L12.1373916,10.6503173 C12.2043948,9.61271799 11.8744104,8.66370861 11.3232457,7.99155661 C10.78234,7.33191553 10.0322043,6.9375 9.21809725,6.9375 L9.21809725,6.9375 L8.20848187,6.9375 L8.02181271,6.94444266 C7.28020737,6.99974869 6.60263094,7.38265715 6.10333338,7.99155661 C5.54638562,8.67076119 5.13030436,9.61220155 6.07671096,11.5658973 L6.03992971,11.4887653 C5.87102403,11.429973 5.71945995,11.3332714 5.59541212,11.2092236 C5.38378701,10.9975985 5.2517511,10.7058894 5.2517511,10.3846154 C5.2517511,9.64966621 5.44720951,8.96332566 5.78704712,8.39692963 C6.12204187,7.83860506 6.59752097,7.39656014 7.16353453,7.15046729 C7.51618752,6.99713991 7.90049947,6.92139402 8.29410006,6.91892006 C7.91526203,6.81221544 7.61105869,6.57918615 7.38155516,6.28709076 C7.14070289,5.9805515 6.98252033,5.60946869 6.98252033,5.19230769 C6.98252033,4.71237981 7.17946009,4.27643999 7.49565251,3.96024756 C7.81184493,3.64405514 8.24778475,3.44711538 8.72771264,3.44711538 Z M8.72771264,3.47596154 C8.25571744,3.47596154 7.82627265,3.66844486 7.51506122,3.97965628 C7.2038498,4.29086771 7.01136648,4.7203125 7.01136648,5.19230769 C7.01136648,5.66430288 7.2038498,6.09374768 7.51506122,6.4049591 C7.82627265,6.71617053 8.25571744,6.90865385 8.72771264,6.90865385 C9.19970783,6.90865385 9.62915262,6.71617053 9.94036405,6.4049591 C10.2515755,6.09374768 10.4440588,5.66430288 10.4440588,5.19230769 C10.4440588,4.7203125 10.2515755,4.29086771 9.94036405,3.97965628 C9.62915262,3.66844486 9.19970783,3.47596154 8.72771264,3.47596154 Z" id="Shape" stroke="#FFFFFF" stroke-width="1.125" fill-rule="nonzero"></path>
                <rect id="Rectangle" x="0" y="0" width="16" height="16"></rect>
            </g>
        </g>
    </g>
</svg>