<?xml version="1.0" encoding="UTF-8"?>
<svg width="20px" height="20px" viewBox="0 0 20 20" version="1.1" xmlns="http://www.w3.org/2000/svg" xmlns:xlink="http://www.w3.org/1999/xlink">
    <title>push_pin-24px</title>
    <g id="icon" stroke="none" stroke-width="1" fill="none" fill-rule="evenodd">
        <g id="Artboard" transform="translate(-465.000000, -137.000000)">
            <g id="push_pin-24px" transform="translate(465.000000, 137.000000)">
                <rect id="Rectangle" x="0" y="0" width="20" height="20"></rect>
                <path d="M11.6666667,3.33333333 L11.6666667,7.5 C11.6666667,8.43333333 11.975,9.3 12.5,10 L7.5,10 C8.04166667,9.28333333 8.33333333,8.41666667 8.33333333,7.5 L8.33333333,3.33333333 L11.6666667,3.33333333 M14.1666667,1.66666667 L5.83333333,1.66666667 C5.375,1.66666667 5,2.04166667 5,2.5 C5,2.95833333 5.375,3.33333333 5.83333333,3.33333333 C5.83333333,3.33333333 5.83333333,3.33333333 5.83333333,3.33333333 L6.66666667,3.33333333 L6.66666667,7.5 C6.66666667,8.88333333 5.55,10 4.16666667,10 L4.16666667,11.6666667 L9.14166667,11.6666667 L9.14166667,17.5 L9.975,18.3333333 L10.8083333,17.5 L10.8083333,11.6666667 L15.8333333,11.6666667 L15.8333333,10 C15.8333333,10 15.8333333,10 15.8333333,10 C14.45,10 13.3333333,8.88333333 13.3333333,7.5 L13.3333333,3.33333333 L14.1666667,3.33333333 C14.1666667,3.33333333 14.1666667,3.33333333 14.1666667,3.33333333 C14.625,3.33333333 15,2.95833333 15,2.5 C15,2.04166667 14.625,1.66666667 14.1666667,1.66666667 L14.1666667,1.66666667 Z" id="Shape" fill="#666666" fill-rule="nonzero"></path>
            </g>
        </g>
    </g>
</svg>