<?xml version="1.0" encoding="UTF-8"?>
<svg width="22px" height="22px" viewBox="0 0 22 22" version="1.1" xmlns="http://www.w3.org/2000/svg" xmlns:xlink="http://www.w3.org/1999/xlink">
    <title>edit</title>
    <g id="icon" stroke="none" stroke-width="1" fill="none" fill-rule="evenodd">
        <g id="Artboard" transform="translate(-337.000000, -172.000000)" fill-rule="nonzero">
            <g id="edit" transform="translate(337.000000, 172.000000)">
                <rect id="Rectangle" fill="#000000" opacity="0" x="0" y="0" width="22" height="22"></rect>
                <path d="M11,4.125 L4.8125,4.125 C4.43280664,4.125 4.125,4.43280664 4.125,4.8125 L4.125,17.1875 C4.125,17.5671934 4.43280664,17.875 4.8125,17.875 L17.1875,17.875 C17.5671934,17.875 17.875,17.5671934 17.875,17.1875 L17.875,11.515625 C17.875,11.0410137 18.2597637,10.65625 18.734375,10.65625 C19.2089863,10.65625 19.59375,11.0410137 19.59375,11.515625 L19.59375,17.1875 C19.59375,18.5164375 18.5164375,19.59375 17.1875,19.59375 L4.8125,19.59375 C3.4835625,19.59375 2.40625,18.5164375 2.40625,17.1875 L2.40625,4.8125 C2.40625,3.4835625 3.4835625,2.40625 4.8125,2.40625 L11,2.40625 C11.4746113,2.40625 11.859375,2.79101367 11.859375,3.265625 C11.859375,3.74023633 11.4746113,4.125 11,4.125 Z M16.3098203,4.48097461 L9.95886719,10.8319492 L9.34619727,12.6599473 L11.1742168,12.0472773 L17.5251914,5.69630273 L16.3098418,4.48097461 L16.3098203,4.48097461 Z M16.9175059,2.65796094 L19.3481836,5.08863867 C19.6837695,5.42422461 19.6837695,5.96835937 19.3481836,6.3039668 L12.2466094,13.405541 C12.1526074,13.4995402 12.0380797,13.5704498 11.9120332,13.6126934 L8.25601562,14.8380332 C7.58333984,15.0634902 6.94263281,14.4228047 7.16808984,13.7501289 L8.39342969,10.0940898 C8.43567619,9.96805106 8.50658565,9.85353102 8.60058203,9.75953516 L15.7021563,2.65796094 C16.0377637,2.32235352 16.5818984,2.32235352 16.9175059,2.65796094 Z" id="Shape" fill="#29194F"></path>
            </g>
        </g>
    </g>
</svg>