<?xml version="1.0" encoding="UTF-8"?>
<svg width="22px" height="22px" viewBox="0 0 22 22" version="1.1" xmlns="http://www.w3.org/2000/svg" xmlns:xlink="http://www.w3.org/1999/xlink">
    <title>plus-circle</title>
    <g id="icon" stroke="none" stroke-width="1" fill="none" fill-rule="evenodd">
        <g id="Artboard" transform="translate(-139.000000, -172.000000)" fill-rule="nonzero">
            <g id="plus-circle" transform="translate(139.000000, 172.000000)">
                <rect id="Rectangle" fill="#000000" opacity="0" x="0" y="0" width="22" height="22"></rect>
                <path d="M14.953125,10.3125 L11.6875,10.3125 L11.6875,7.046875 C11.6875,6.95234375 11.6101562,6.875 11.515625,6.875 L10.484375,6.875 C10.3898438,6.875 10.3125,6.95234375 10.3125,7.046875 L10.3125,10.3125 L7.046875,10.3125 C6.95234375,10.3125 6.875,10.3898438 6.875,10.484375 L6.875,11.515625 C6.875,11.6101562 6.95234375,11.6875 7.046875,11.6875 L10.3125,11.6875 L10.3125,14.953125 C10.3125,15.0476562 10.3898438,15.125 10.484375,15.125 L11.515625,15.125 C11.6101562,15.125 11.6875,15.0476562 11.6875,14.953125 L11.6875,11.6875 L14.953125,11.6875 C15.0476562,11.6875 15.125,11.6101562 15.125,11.515625 L15.125,10.484375 C15.125,10.3898438 15.0476562,10.3125 14.953125,10.3125 Z" id="Path" fill="#666666"></path>
                <path d="M11,1.375 C5.68476563,1.375 1.375,5.68476563 1.375,11 C1.375,16.3152344 5.68476563,20.625 11,20.625 C16.3152344,20.625 20.625,16.3152344 20.625,11 C20.625,5.68476563 16.3152344,1.375 11,1.375 Z M11,18.9921875 C6.58710938,18.9921875 3.0078125,15.4128906 3.0078125,11 C3.0078125,6.58710938 6.58710938,3.0078125 11,3.0078125 C15.4128906,3.0078125 18.9921875,6.58710938 18.9921875,11 C18.9921875,15.4128906 15.4128906,18.9921875 11,18.9921875 Z" id="Shape" fill="#666666"></path>
            </g>
        </g>
    </g>
</svg>