<?xml version="1.0" encoding="UTF-8"?>
<svg width="22px" height="22px" viewBox="0 0 22 22" version="1.1" xmlns="http://www.w3.org/2000/svg" xmlns:xlink="http://www.w3.org/1999/xlink">
    <title>logout-box-r-line</title>
    <g id="icon" stroke="none" stroke-width="1" fill="none" fill-rule="evenodd">
        <g id="Artboard" transform="translate(-238.000000, -172.000000)">
            <g id="logout-box-r-line" transform="translate(238.000000, 172.000000)">
                <path d="M3.89999999,20 C3.40294372,20 3,19.5970563 3,19.1 L3,2.90000001 C3,2.40294374 3.40294372,2 3.89999999,2 L16.5,2 C16.9970563,2 17.4,2.40294374 17.4,2.90000001 L17.4,5.6 L15.6,5.6 L15.6,3.80000001 L4.79999999,3.80000001 L4.79999999,18.2 L15.6,18.2 L15.6,16.4 L17.4,16.4 L17.4,19.1 C17.4,19.5970563 16.9970563,20 16.5,20 L3.89999999,20 Z M15.6,14.6 L15.6,11.9 L9.29999999,11.9 L9.29999999,10.1 L15.6,10.1 L15.6,7.4 L20.1,11 L15.6,14.6 Z" id="Shape" fill="#666666" fill-rule="nonzero"></path>
                <rect id="f" x="0" y="0" width="22" height="22"></rect>
            </g>
        </g>
    </g>
</svg>