<?xml version="1.0" encoding="UTF-8"?>
<svg width="22px" height="22px" viewBox="0 0 22 22" version="1.1" xmlns="http://www.w3.org/2000/svg" xmlns:xlink="http://www.w3.org/1999/xlink">
    <title>add-purper</title>
    <g id="icon" stroke="none" stroke-width="1" fill="none" fill-rule="evenodd">
        <g id="Artboard" transform="translate(-304.000000, -172.000000)" fill-rule="nonzero">
            <g id="add-purper" transform="translate(304.000000, 172.000000)">
                <rect id="Rectangle" fill="#000000" opacity="0" x="0" y="0" width="22" height="22"></rect>
                <path d="M6.41666667,10.0833333 L15.5833333,10.0833333 C16.1944444,10.0833333 16.5,10.3888889 16.5,11 L16.5,11 C16.5,11.6111111 16.1944444,11.9166667 15.5833333,11.9166667 L6.41666667,11.9166667 C5.80555556,11.9166667 5.5,11.6111111 5.5,11 L5.5,11 C5.5,10.3888889 5.80555556,10.0833333 6.41666667,10.0833333 L6.41666667,10.0833333 Z" id="Path" fill="#29194F"></path>
                <path d="M11.9166667,6.41666667 L11.9166667,15.5833333 C11.9166667,16.1944444 11.6111111,16.5 11,16.5 L11,16.5 C10.3888889,16.5 10.0833333,16.1944444 10.0833333,15.5833333 L10.0833333,6.41666667 C10.0833333,5.80555556 10.3888889,5.5 11,5.5 L11,5.5 C11.6111111,5.5 11.9166667,5.80555556 11.9166667,6.41666667 Z" id="Path" fill="#29194F"></path>
                <path d="M11,20.1666667 C5.93725,20.1666667 1.83333333,16.06275 1.83333333,11 C1.83333333,5.93725 5.93725,1.83333333 11,1.83333333 C16.06275,1.83333333 20.1666667,5.93725 20.1666667,11 C20.1666667,16.06275 16.06275,20.1666667 11,20.1666667 Z M11,18.3333333 C15.0500882,18.3333333 18.3333333,15.0500882 18.3333333,11 C18.3333333,6.94991184 15.0500882,3.66666667 11,3.66666667 C6.9499119,3.66666667 3.66666683,6.9499119 3.66666683,11 C3.66666683,15.0500881 6.9499119,18.3333333 11,18.3333333 Z" id="Shape" fill="#29194F"></path>
            </g>
        </g>
    </g>
</svg>