<?xml version="1.0" encoding="UTF-8"?>
<svg width="20px" height="20px" viewBox="0 0 20 20" version="1.1" xmlns="http://www.w3.org/2000/svg" xmlns:xlink="http://www.w3.org/1999/xlink">
    <title>lock</title>
    <g id="icon" stroke="none" stroke-width="1" fill="none" fill-rule="evenodd">
        <g id="Artboard" transform="translate(-136.000000, -137.000000)" fill-rule="nonzero">
            <g id="lock" transform="translate(136.000000, 137.000000)">
                <rect id="Rectangle" fill="#000000" opacity="0" x="0" y="0" width="20" height="20"></rect>
                <path d="M13.9077966,7.69077797 L13.2557993,7.69077797 L13.2557993,6.38680336 C13.2557993,4.5617026 11.8229522,3.12787617 9.99783148,3.12787617 C8.17369008,3.12787617 6.73990361,4.56168262 6.73990361,6.38680336 L6.73990361,7.69077797 L6.08794629,7.69077797 C5.37107305,7.69077797 4.78497102,8.2769 4.78497102,8.99271395 L4.78497102,15.5106283 C4.78497102,16.2264422 5.37109305,16.8125643 6.08794629,16.8125643 L13.9077966,16.8125643 C14.6246299,16.8125643 15.2107119,16.2264422 15.2107119,15.5106283 L15.2107119,8.99271395 C15.2107119,8.27689998 14.6246099,7.69077797 13.9077966,7.69077797 M9.99783146,4.36695484 C11.1061189,4.36695484 12.0186793,5.2784959 12.0186793,6.38680336 L12.0186793,7.69077797 L8.04289887,7.69077797 L8.04289887,6.38680336 L7.97700361,6.38680336 C7.97700361,5.2784959 8.8905633,4.36695484 9.99783146,4.36695484 M13.9077966,15.5106283 L6.08794629,15.5106283 L6.08794629,8.99271395 L13.9077966,8.99271395 L13.9077966,15.5106283 Z M9.99783146,13.5556157 C10.7147647,13.5556157 11.3008267,12.9685743 11.3008267,12.2517011 C11.3008267,11.5347679 10.7147647,10.9477265 9.99783146,10.9477265 C9.2809782,10.9477265 8.69491615,11.5347679 8.69491615,12.2517011 C8.69491615,12.9685743 9.28097822,13.5556157 9.99783146,13.5556157" id="Shape" fill="#46494D"></path>
            </g>
        </g>
    </g>
</svg>