<?xml version="1.0" encoding="UTF-8"?>
<svg width="22px" height="22px" viewBox="0 0 22 22" version="1.1" xmlns="http://www.w3.org/2000/svg" xmlns:xlink="http://www.w3.org/1999/xlink">
    <title>phone-fill</title>
    <g id="icon" stroke="none" stroke-width="1" fill="none" fill-rule="evenodd">
        <g id="Artboard" transform="translate(-164.000000, -59.000000)">
            <g id="phone-fill" transform="translate(164.000000, 59.000000)">
                <path d="M8.366,9.68199999 C9.30433589,11.3304782 10.6695218,12.6956641 12.318,13.634 L13.202,12.396 C13.4962196,11.9840037 14.0519254,11.856887 14.496,12.1 C15.9103203,12.8729247 17.4722076,13.3377761 19.079,13.464 C19.5990657,13.505214 20,13.9393038 20,14.461 L20,18.923 C20,19.4358737 19.6121987,19.8656869 19.102,19.918 C18.5697719,19.9729476 18.0350569,20.0003175 17.5,20 C8.94000001,20 2,13.06 2,4.49999998 C2,3.962 2.027,3.428 2.08200001,2.89800001 C2.13431311,2.38780129 2.56412635,1.99999998 3.077,1.99999998 L7.53900001,1.99999998 C8.06069624,1.99999998 8.49478599,2.40093426 8.53599999,2.921 C8.66222386,4.52779242 9.12707534,6.08967973 9.90000001,7.50399999 C10.143113,7.94807455 10.0159963,8.50378044 9.60399999,8.798 L8.366,9.68199999 L8.366,9.68199999 Z" id="Shape" fill="#29194F" fill-rule="nonzero"></path>
                <rect id="Rectangle" x="0" y="0" width="22" height="22"></rect>
            </g>
        </g>
    </g>
</svg>