<?xml version="1.0" encoding="UTF-8"?>
<svg width="16px" height="16px" viewBox="0 0 16 16" version="1.1" xmlns="http://www.w3.org/2000/svg" xmlns:xlink="http://www.w3.org/1999/xlink">
    <title>history</title>
    <g id="icon" stroke="none" stroke-width="1" fill="none" fill-rule="evenodd">
        <g id="Artboard" transform="translate(-41.000000, -243.000000)" fill="#FFFFFF" fill-rule="nonzero">
            <g id="history" transform="translate(41.000000, 243.000000)">
                <path d="M8,0 C12.4181053,0 16,3.58189474 16,8 C16,12.4181053 12.4181053,16 8,16 C3.58189474,16 0,12.4181053 0,8 C0,3.58189474 3.58189474,0 8,0 Z M8,1.68421053 C4.512,1.68421053 1.68421053,4.512 1.68421053,8 C1.68421053,11.488 4.512,14.3157895 8,14.3157895 C11.488,14.3157895 14.3157895,11.488 14.3157895,8 C14.3157895,4.512 11.488,1.68421053 8,1.68421053 Z M7.57894737,4.21052632 C8.04402926,4.21052632 8.42105263,4.58754968 8.42105263,5.05263158 L8.42105263,7.65094737 L10.7006316,9.93094737 C11.0095782,10.2398603 11.0309717,10.7337394 10.7498947,11.0682105 L10.7006316,11.1216842 C10.3717896,11.4504269 9.83873672,11.4504269 9.50989474,11.1216842 L6.98357895,8.59536842 L6.94357895,8.55242105 C6.83538272,8.4276557 6.76601229,8.27398703 6.744,8.11031579 C6.73919796,8.07374057 6.73684172,8.03688909 6.73684172,8 L6.73810526,8.04926316 C6.73742008,8.03706317 6.73699893,8.02484979 6.73684172,8.01263158 L6.73684172,5.05263158 C6.73684172,4.58754968 7.11386547,4.21052632 7.57894737,4.21052632 L7.57894737,4.21052632 Z" id="Shape"></path>
            </g>
        </g>
    </g>
</svg>