<?xml version="1.0" encoding="UTF-8"?>
<svg width="22px" height="22px" viewBox="0 0 22 22" version="1.1" xmlns="http://www.w3.org/2000/svg" xmlns:xlink="http://www.w3.org/1999/xlink">
    <title>home-5-fill</title>
    <g id="icon" stroke="none" stroke-width="1" fill="none" fill-rule="evenodd">
        <g id="Artboard" transform="translate(-41.000000, -59.000000)">
            <g id="home-5-fill" transform="translate(41.000000, 59.000000)">
                <path d="M20.0000002,19.9857305 C20.0000002,20.5458961 19.5522838,21 19.0000002,21 L3.00000024,21 C2.4477157,21 2.00000024,20.5458961 2.00000024,19.9857305 L2.00000024,9.32575815 C1.99978623,9.01254392 2.14225657,8.71679876 2.38600044,8.52448524 L10.3859998,2.21370046 C10.7471334,1.92876651 11.2528661,1.92876651 11.6139997,2.21370046 L19.6139991,8.52448524 C19.857743,8.71679876 20.0002133,9.01254392 20.0000002,9.32575815 L20.0000002,19.9857305 L20.0000002,19.9857305 Z M9.99999983,12.8858441 L9.99999983,18.971461 L11.9999998,18.971461 L11.9999998,12.8858441 L9.99999983,12.8858441 Z" id="Shape" fill="#29194F" fill-rule="nonzero"></path>
                <rect id="Rectangle-Copy-8" x="0" y="0" width="22" height="22"></rect>
            </g>
        </g>
    </g>
</svg>