<?xml version="1.0" encoding="UTF-8"?>
<svg width="22px" height="22px" viewBox="0 0 22 22" version="1.1" xmlns="http://www.w3.org/2000/svg" xmlns:xlink="http://www.w3.org/1999/xlink">
    <title>call-24px (1)</title>
    <g id="icon" stroke="none" stroke-width="1" fill="none" fill-rule="evenodd">
        <g id="Artboard" transform="translate(-106.000000, -172.000000)">
            <g id="call-24px-(1)" transform="translate(106.000000, 172.000000)">
                <polygon id="Path" points="0 0 22 0 22 22 0 22"></polygon>
                <path d="M5.995,4.58333333 C6.05,5.39916667 6.1875,6.19666667 6.4075,6.9575 L5.3075,8.0575 C4.93166667,6.9575 4.69333333,5.79333333 4.61083333,4.58333333 L5.995,4.58333333 M15.0333333,15.6016667 C15.8125,15.8216667 16.61,15.9591667 17.4166667,16.0141667 L17.4166667,17.38 C16.2066667,17.2975 15.0425,17.0591667 13.9333333,16.6925 L15.0333333,15.6016667 M6.875,2.75 L3.66666667,2.75 C3.1625,2.75 2.75,3.1625 2.75,3.66666667 C2.75,12.2741667 9.72583333,19.25 18.3333333,19.25 C18.8375,19.25 19.25,18.8375 19.25,18.3333333 L19.25,15.1341667 C19.25,14.63 18.8375,14.2175 18.3333333,14.2175 C17.1966667,14.2175 16.0875,14.0341667 15.0608333,13.695 C14.9691667,13.6583333 14.8683333,13.6491667 14.7766667,13.6491667 C14.5383333,13.6491667 14.3091667,13.7408333 14.1258333,13.915 L12.1091667,15.9316667 C9.515,14.6025 7.38833333,12.485 6.06833333,9.89083333 L8.085,7.87416667 C8.34166667,7.6175 8.415,7.26 8.31416667,6.93916667 C7.975,5.9125 7.79166667,4.8125 7.79166667,3.66666667 C7.79166667,3.1625 7.37916667,2.75 6.875,2.75 Z" id="Shape" fill="#666666" fill-rule="nonzero"></path>
            </g>
        </g>
    </g>
</svg>