<?xml version="1.0" encoding="UTF-8"?>
<svg width="22px" height="22px" viewBox="0 0 22 22" version="1.1" xmlns="http://www.w3.org/2000/svg" xmlns:xlink="http://www.w3.org/1999/xlink">
    <title>close-circle</title>
    <g id="icon" stroke="none" stroke-width="1" fill="none" fill-rule="evenodd">
        <g id="Artboard" transform="translate(-403.000000, -172.000000)" fill-rule="nonzero">
            <g id="close-circle" transform="translate(403.000000, 172.000000)">
                <rect id="Rectangle" fill="#000000" opacity="0" x="0" y="0" width="22" height="22"></rect>
                <path d="M14.7253906,7.62265625 C14.7253906,7.528125 14.6480469,7.45078125 14.5535156,7.45078125 L13.1355469,7.45722656 L11,10.003125 L8.86660156,7.459375 L7.44648438,7.45292969 C7.35195313,7.45292969 7.27460938,7.528125 7.27460938,7.62480469 C7.27460938,7.665625 7.28964844,7.70429687 7.31542969,7.73652344 L10.1105469,11.0666016 L7.31542969,14.3945312 C7.28964844,14.4267578 7.27460938,14.4654297 7.27460938,14.50625 C7.27460938,14.6007813 7.35195313,14.678125 7.44648438,14.678125 L8.86660156,14.6716797 L11,12.1257812 L13.1333984,14.6695312 L14.5513672,14.6759766 C14.6458984,14.6759766 14.7232422,14.6007812 14.7232422,14.5041016 C14.7232422,14.4632812 14.7082031,14.4246094 14.6824219,14.3923828 L11.8916016,11.0644531 L14.6867188,7.734375 C14.7125,7.70429687 14.7253906,7.66347656 14.7253906,7.62265625 Z" id="Path" fill="#666666"></path>
                <path d="M11,1.39648438 C5.68476563,1.39648438 1.375,5.70625 1.375,11.0214844 C1.375,16.3367187 5.68476563,20.6464844 11,20.6464844 C16.3152344,20.6464844 20.625,16.3367187 20.625,11.0214844 C20.625,5.70625 16.3152344,1.39648438 11,1.39648438 Z M11,19.0136719 C6.58710938,19.0136719 3.0078125,15.434375 3.0078125,11.0214844 C3.0078125,6.60859375 6.58710938,3.02929688 11,3.02929688 C15.4128906,3.02929688 18.9921875,6.60859375 18.9921875,11.0214844 C18.9921875,15.434375 15.4128906,19.0136719 11,19.0136719 Z" id="Shape" fill="#666666"></path>
            </g>
        </g>
    </g>
</svg>