<?xml version="1.0" encoding="UTF-8"?>
<svg width="20px" height="20px" viewBox="0 0 20 20" version="1.1" xmlns="http://www.w3.org/2000/svg" xmlns:xlink="http://www.w3.org/1999/xlink">
    <title>format_indent_decrease-24px</title>
    <g id="icon" stroke="none" stroke-width="1" fill="none" fill-rule="evenodd">
        <g id="Artboard" transform="translate(-328.000000, -137.000000)">
            <g id="format_indent_decrease-24px" transform="translate(328.000000, 137.000000)">
                <polygon id="Path" points="0 0 20 0 20 20 0 20"></polygon>
                <path d="M9.16666667,14.1666667 L17.5,14.1666667 L17.5,12.5 L9.16666667,12.5 L9.16666667,14.1666667 Z M2.5,10 L5.83333333,13.3333333 L5.83333333,6.66666667 L2.5,10 Z M2.5,17.5 L17.5,17.5 L17.5,15.8333333 L2.5,15.8333333 L2.5,17.5 Z M2.5,2.5 L2.5,4.16666667 L17.5,4.16666667 L17.5,2.5 L2.5,2.5 Z M9.16666667,7.5 L17.5,7.5 L17.5,5.83333333 L9.16666667,5.83333333 L9.16666667,7.5 Z M9.16666667,10.8333333 L17.5,10.8333333 L17.5,9.16666667 L9.16666667,9.16666667 L9.16666667,10.8333333 Z" id="Shape" fill="#FFFFFF" fill-rule="nonzero"></path>
            </g>
        </g>
    </g>
</svg>