<?xml version="1.0" encoding="UTF-8"?>
<svg width="22px" height="22px" viewBox="0 0 22 22" version="1.1" xmlns="http://www.w3.org/2000/svg" xmlns:xlink="http://www.w3.org/1999/xlink">
    <title>community-line</title>
    <g id="icon" stroke="none" stroke-width="1" fill="none" fill-rule="evenodd">
        <g id="Artboard" transform="translate(-82.000000, -27.000000)">
            <g id="community-line" transform="translate(82.000000, 27.000000)">
                <path d="M20.86686,20.760479 L1.10638099,20.760479 C0.50008036,20.760479 0.00857658165,20.2689753 0.00857658165,19.6626746 L0.00857658165,11.4148703 C0.00857658165,11.0974974 0.145859078,10.7956397 0.385123503,10.5871257 L4.39979416,7.08622754 L4.39979416,2.0978044 C4.39979416,1.49150377 4.89129793,1 5.49759856,1 L20.86686,1 C21.4731607,1 21.9646644,1.49150377 21.9646644,2.0978044 L21.9646644,19.6626746 C21.9646644,20.2689753 21.4731607,20.760479 20.86686,20.760479 Z M7.69320734,18.5648703 L10.9866205,18.5648703 L10.9866205,11.9143713 L6.59540294,8.08522955 L2.20418539,11.9143713 L2.20418539,18.5648703 L5.49759856,18.5648703 L5.49759856,14.1736527 L7.69320734,14.1736527 L7.69320734,18.5648703 Z M13.1822293,18.5648703 L19.7690556,18.5648703 L19.7690556,3.19560877 L6.59540294,3.19560877 L6.59540294,5.53063871 C6.85228916,5.53063871 7.1102732,5.62065868 7.31666042,5.80179641 L12.8056824,10.5871257 C13.0449468,10.7956397 13.182264,11.0974974 13.1822293,11.4148703 L13.1822293,18.5648703 Z M15.3778381,9.78243512 L17.5734469,9.78243512 L17.5734469,11.9780439 L15.3778381,11.9780439 L15.3778381,9.78243512 Z M15.3778381,14.1736527 L17.5734469,14.1736527 L17.5734469,16.3692615 L15.3778381,16.3692615 L15.3778381,14.1736527 Z M15.3778381,5.39121757 L17.5734469,5.39121757 L17.5734469,7.58682635 L15.3778381,7.58682635 L15.3778381,5.39121757 Z M10.9866205,5.39121757 L13.1822293,5.39121757 L13.1822293,7.58682635 L10.9866205,7.58682635 L10.9866205,5.39121757 Z" id="Shape" fill="#636166" fill-rule="nonzero"></path>
                <rect id="Rectangle" x="0" y="0" width="22" height="22"></rect>
            </g>
        </g>
    </g>
</svg>