<?xml version="1.0" encoding="UTF-8"?>
<svg width="22px" height="22px" viewBox="0 0 22 22" version="1.1" xmlns="http://www.w3.org/2000/svg" xmlns:xlink="http://www.w3.org/1999/xlink">
    <title>home-line</title>
    <g id="icon" stroke="none" stroke-width="1" fill="none" fill-rule="evenodd">
        <g id="Artboard" transform="translate(-41.000000, -27.000000)">
            <g id="home-5-line-(1)" transform="translate(41.000000, 27.000000)">
                <path d="M12,18.75 L18,18.75 L18,9.728 L11,4.28400001 L3.99999999,9.728 L3.99999999,18.75 L9.99999999,18.75 L9.99999999,12.75 L12,12.75 L12,18.75 Z M19.9999998,19.75 C19.9999998,20.3022847 19.5522847,20.75 18.9999998,20.75 L2.99999976,20.75 C2.44771525,20.75 1.99999976,20.3022847 1.99999976,19.75 L1.99999976,9.24000001 C1.99978575,8.9311923 2.1422561,8.6396079 2.38599999,8.45 L10.386,2.228 C10.7471336,1.94707471 11.2528664,1.94707471 11.614,2.228 L19.614,8.45 C19.8577439,8.6396079 20.0002143,8.9311923 19.9999998,9.24000001 L19.9999998,19.75 L19.9999998,19.75 Z" id="Shape" fill="#636166" fill-rule="nonzero"></path>
                <rect id="home-line" x="0" y="0" width="22" height="22"></rect>
            </g>
        </g>
    </g>
</svg>