<?xml version="1.0" encoding="UTF-8"?>
<svg width="20px" height="20px" viewBox="0 0 20 20" version="1.1" xmlns="http://www.w3.org/2000/svg" xmlns:xlink="http://www.w3.org/1999/xlink">
    <title>description-24px</title>
    <g id="icon" stroke="none" stroke-width="1" fill="none" fill-rule="evenodd">
        <g id="Artboard" transform="translate(-500.000000, -137.000000)">
            <g id="description-24px" transform="translate(500.000000, 137.000000)">
                <polygon id="Path" points="0 0 20 0 20 20 0 20"></polygon>
                <path d="M6.66666667,13.3333333 L13.3333333,13.3333333 L13.3333333,15 L6.66666667,15 L6.66666667,13.3333333 Z M6.66666667,10 L13.3333333,10 L13.3333333,11.6666667 L6.66666667,11.6666667 L6.66666667,10 Z M11.6666667,1.66666667 L5,1.66666667 C4.08333333,1.66666667 3.33333333,2.41666667 3.33333333,3.33333333 L3.33333333,16.6666667 C3.33333333,17.5833333 4.075,18.3333333 4.99166667,18.3333333 L15,18.3333333 C15.9166667,18.3333333 16.6666667,17.5833333 16.6666667,16.6666667 L16.6666667,6.66666667 L11.6666667,1.66666667 Z M15,16.6666667 L5,16.6666667 L5,3.33333333 L10.8333333,3.33333333 L10.8333333,7.5 L15,7.5 L15,16.6666667 Z" id="Shape" fill="#666666" fill-rule="nonzero"></path>
            </g>
        </g>
    </g>
</svg>