<?xml version="1.0" encoding="UTF-8"?>
<svg width="22px" height="22px" viewBox="0 0 22 22" version="1.1" xmlns="http://www.w3.org/2000/svg" xmlns:xlink="http://www.w3.org/1999/xlink">
    <title>contact_line</title>
    <g id="icon" stroke="none" stroke-width="1" fill="none" fill-rule="evenodd">
        <g id="Artboard" transform="translate(-123.000000, -27.000000)">
            <g id="contact_line" transform="translate(123.000000, 27.000000)">
                <polygon id="Path" points="0 0 22 0 22 22 0 22"></polygon>
                <path d="M19.1033333,3.86833333 C19.0575,3.75833333 19.0025,3.6575 18.9383333,3.55666667 C18.81,3.36416667 18.6358333,3.19 18.4433333,3.06166667 C18.3425,2.9975 18.2416667,2.9425 18.1316667,2.89666667 C17.9116667,2.805 17.6733333,2.75 17.4166667,2.75 L16.5,2.75 L16.5,0.916666667 L14.6666667,0.916666667 L14.6666667,2.75 L7.33333333,2.75 L7.33333333,0.916666667 L5.5,0.916666667 L5.5,2.75 L4.58333333,2.75 C4.19833333,2.75 3.85,2.86916667 3.55666667,3.06166667 C3.36416667,3.19 3.19,3.36416667 3.06166667,3.55666667 C2.9975,3.6575 2.9425,3.75833333 2.89666667,3.86833333 C2.805,4.08833333 2.75,4.32666667 2.75,4.58333333 L2.75,17.4166667 C2.75,18.425 3.56583333,19.25 4.58333333,19.25 L17.4166667,19.25 C17.6733333,19.25 17.9116667,19.195 18.1316667,19.1033333 C18.2416667,19.0575 18.3425,19.0025 18.4433333,18.9383333 C18.6358333,18.81 18.81,18.6358333 18.9383333,18.4433333 C19.1308333,18.15 19.25,17.7925 19.25,17.4166667 L19.25,4.58333333 C19.25,4.32666667 19.195,4.08833333 19.1033333,3.86833333 Z M4.58333333,17.4166667 L4.58333333,4.58333333 L17.4166667,4.58333333 L17.4166667,17.4166667 L4.58333333,17.4166667 Z M11,11.8066667 C9.13916667,11.8066667 5.5,12.7966667 5.5,15.0883333 L5.5,16.5 L16.5,16.5 L16.5,15.0975 C16.5,12.7966667 12.8608333,11.8066667 11,11.8066667 Z M7.6175,14.6666667 C8.25,14.1533333 9.79916667,13.64 11,13.64 C12.2008333,13.64 13.7591667,14.1533333 14.3825,14.6666667 L7.6175,14.6666667 Z M11,11 C12.5125,11 13.75,9.7625 13.75,8.25 C13.75,6.7375 12.5125,5.5 11,5.5 C9.4875,5.5 8.25,6.7375 8.25,8.25 C8.25,9.7625 9.4875,11 11,11 Z M11,7.33333333 C11.5041667,7.33333333 11.9166667,7.74583333 11.9166667,8.25 C11.9166667,8.75416667 11.5041667,9.16666667 11,9.16666667 C10.4958333,9.16666667 10.0833333,8.75416667 10.0833333,8.25 C10.0833333,7.74583333 10.4958333,7.33333333 11,7.33333333 Z" id="Shape" fill="#636166" fill-rule="nonzero"></path>
                <rect id="Rectangle" x="0" y="0" width="22" height="22"></rect>
            </g>
        </g>
    </g>
</svg>