<?xml version="1.0" encoding="UTF-8"?>
<svg width="22px" height="22px" viewBox="0 0 22 22" version="1.1" xmlns="http://www.w3.org/2000/svg" xmlns:xlink="http://www.w3.org/1999/xlink">
    <title>设置</title>
    <g id="icon" stroke="none" stroke-width="1" fill="none" fill-rule="evenodd" opacity="0.75999999">
        <g id="Artboard" transform="translate(-271.000000, -172.000000)" fill-rule="nonzero">
            <g id="设置" transform="translate(271.000000, 172.000000)">
                <rect id="Rectangle" fill="#000000" opacity="0" x="0" y="0" width="22" height="22"></rect>
                <path d="M13.1536356,20 L8.84886482,20 C7.16809565,19.9954624 5.61760154,19.0925627 4.78213664,17.6318209 L2.62675069,13.8656747 C1.7910831,12.3996091 1.7910831,10.6003909 2.62675069,9.13432528 L4.78213664,5.36817913 C5.61805634,3.90789004 7.16826343,3.00515744 8.84886482,3 L13.1511352,3 C14.8319044,3.0045376 16.3823985,3.90743734 17.2178634,5.36817913 L19.3732493,9.13432528 C20.2089169,10.6003909 20.2089169,12.3996091 19.3732493,13.8656747 L17.2178634,17.6318209 C16.3834515,19.0923929 14.8337344,19.9953954 13.1536356,20 L13.1536356,20 Z M6.07136749,16.8814968 C6.6421893,17.8789983 7.70096229,18.4957194 8.84886482,18.4993518 L13.1511352,18.4993518 C14.2992056,18.4963396 15.3582658,17.8794512 15.9286325,16.8814968 L18.0835184,13.1153506 C18.6537383,12.1132797 18.6537383,10.8842158 18.0835184,9.88214497 L15.9281324,6.11549793 C15.3574892,5.11830559 14.29918,4.5016326 13.1516353,4.4976429 L8.84936492,4.4976429 C7.70129448,4.50065514 6.64223429,5.11754353 6.07186757,6.11549793 L3.91698172,9.88214497 C3.34676183,10.8842158 3.34676183,12.1132797 3.91698172,13.1153506 L6.07236767,16.8819977 L6.07136749,16.8814968 Z M11.0012502,15.348792 C8.89587324,15.348792 7.18256645,13.6207425 7.18256645,11.4974956 C7.18256645,9.37424868 8.89587324,7.64619918 11.0012502,7.64619918 C13.1066272,7.64619918 14.819934,9.37424868 14.819934,11.4974956 C14.819934,13.6207425 13.1066272,15.348792 11.0012502,15.348792 Z M11.0012502,9.14684738 C9.71652018,9.14684738 8.67033285,10.2022098 8.67033285,11.4974956 C8.67033285,12.7927814 9.71652018,13.8481438 11.0012502,13.8481438 C12.2859803,13.8481438 13.3321676,12.7927814 13.3321676,11.4974956 C13.3321676,10.2022098 12.2859803,9.14684738 11.0012502,9.14684738 Z" id="Shape" fill="#FFFFFF"></path>
            </g>
        </g>
    </g>
</svg>