<?xml version="1.0" encoding="UTF-8"?>
<svg width="22px" height="22px" viewBox="0 0 22 22" version="1.1" xmlns="http://www.w3.org/2000/svg" xmlns:xlink="http://www.w3.org/1999/xlink">
    <title>settings-4-line</title>
    <g id="icon" stroke="none" stroke-width="1" fill="none" fill-rule="evenodd">
        <g id="Artboard" transform="translate(-172.000000, -172.000000)">
            <g id="settings-4-line" transform="translate(172.000000, 172.000000)">
                <path d="M2.00701571,10.6732784 C2.00701571,9.89633233 2.1058196,9.14363773 2.29084955,8.42417665 C3.30265722,8.47736361 4.2587779,7.95847521 4.76558569,7.08113293 C5.27239348,6.20379065 5.24421303,5.11630833 4.69264597,4.26639222 C5.77852239,3.19804086 7.11850861,2.42372357 8.58635854,2.01639222 C9.04604352,2.92018371 9.97417796,3.48940516 10.9881549,3.48940516 C12.0021319,3.48940516 12.9302664,2.92018371 13.3899513,2.01639222 C14.8578013,2.42372357 16.1977875,3.19804086 17.2836639,4.26639222 C16.7314636,5.11647721 16.7030694,6.20454292 17.2101806,7.08227176 C17.7172917,7.9600006 18.6740956,8.47886441 19.6863585,8.42507484 C20.0663182,9.90010066 20.0663182,11.4473544 19.6863585,12.9223802 C18.6743915,12.8688342 17.7179497,13.3875827 17.2109107,14.264997 C16.7038717,15.1424114 16.7319815,16.2301111 17.2836639,17.0801647 C16.1977875,18.148516 14.8578013,18.9228333 13.3899513,19.3301647 C12.9302664,18.4263732 12.0021319,17.8571517 10.9881549,17.8571517 C9.97417796,17.8571517 9.04604352,18.4263732 8.58635854,19.3301647 C7.11850861,18.9228333 5.77852239,18.148516 4.69264597,17.0801647 C5.24484625,16.2300797 5.27324048,15.142014 4.76612931,14.2642851 C4.25901815,13.3865563 3.30221432,12.8676925 2.28995134,12.921482 C2.10164025,12.1869288 2.00658104,11.4315853 2.00701571,10.6732784 Z M6.32198728,13.3678892 C6.88785554,14.3478293 7.04953219,15.4750749 6.8285741,16.5331587 C7.19504117,16.7936377 7.58486152,17.0190868 7.99354417,17.2068114 C8.81689819,16.4692394 9.88364659,16.0617319 10.9890531,16.0625 C12.1207897,16.0625 13.1788735,16.4855539 13.9845621,17.2068114 C14.3932447,17.0190868 14.7830651,16.7936377 15.1495322,16.5331587 C14.9226779,15.4516895 15.1030732,14.324539 15.656119,13.3678892 C16.2081805,12.4107393 17.0941583,11.6910822 18.144143,11.3469311 C18.1856821,10.8987899 18.1856821,10.447767 18.144143,9.99962575 C17.0938243,9.65566742 16.2075003,8.93598896 15.6552208,7.97866766 C15.1021749,7.02201792 14.9217797,5.89486739 15.148634,4.81339821 C14.7822703,4.55285014 14.3922322,4.32730769 13.9836639,4.13974552 C13.1605405,4.87711068 12.0941501,5.28460356 10.9890531,5.28405689 C9.88364659,5.28482495 8.81689819,4.87731747 7.99354417,4.13974552 C7.58497829,4.3273124 7.19494064,4.55285461 6.8285741,4.81339821 C7.05542839,5.89486739 6.87503313,7.02201792 6.32198728,7.97866766 C5.7699258,8.93581761 4.88394803,9.65547464 3.83396332,9.99962575 C3.79242421,10.447767 3.79242421,10.8987899 3.83396332,11.3469311 C4.884282,11.6908895 5.77060602,12.4105679 6.32288549,13.3678892 L6.32198728,13.3678892 Z M10.9890531,13.3678892 C9.5008607,13.3678892 8.29444237,12.1614709 8.29444237,10.6732784 C8.29444237,9.185086 9.5008607,7.97866766 10.9890531,7.97866766 C12.4772456,7.97866766 13.6836639,9.185086 13.6836639,10.6732784 C13.6836639,12.1614709 12.4772456,13.3678892 10.9890531,13.3678892 Z M10.9890531,11.571482 C11.4851173,11.571482 11.8872567,11.1693426 11.8872567,10.6732784 C11.8872567,10.1772143 11.4851173,9.77507484 10.9890531,9.77507484 C10.492989,9.77507484 10.0908495,10.1772143 10.0908495,10.6732784 C10.0908495,11.1693426 10.492989,11.571482 10.9890531,11.571482 L10.9890531,11.571482 Z" id="Shape" fill="#666666" fill-rule="nonzero"></path>
                <rect id="Rectangle" x="0" y="0" width="22" height="22"></rect>
            </g>
        </g>
    </g>
</svg>