<?xml version="1.0" encoding="UTF-8"?>
<svg width="16px" height="16px" viewBox="0 0 16 16" version="1.1" xmlns="http://www.w3.org/2000/svg" xmlns:xlink="http://www.w3.org/1999/xlink">
    <title>info-16px</title>
    <g id="icon" stroke="none" stroke-width="1" fill="none" fill-rule="evenodd">
        <g id="Artboard" transform="translate(-89.000000, -243.000000)" fill-rule="nonzero">
            <g id="短信" transform="translate(89.000000, 243.000000)">
                <rect id="Rectangle" fill="#666666" opacity="0" x="0" y="0" width="15.1555693" height="15.1555693"></rect>
                <path d="M8.31584208,0 C3.72613693,0 0,3.2 0,7.144 C0,9.488 0.855572214,11.408 2.55872064,12.8 L2.55872064,15.144 C2.55872064,15.784 2.77461269,16 3.09445277,16 C3.29435282,15.992 3.47826087,15.92 3.63018491,15.784 L6.18890555,14.288 C6.89255372,14.416 7.6041979,14.48 8.32383808,14.504 C12.9055472,14.504 16,11.088 16,7.144 C16,3.2 12.161919,0 8.31584208,0 Z M8.31584208,13.28 C7.89205397,13.28 6.82058971,13.176 6.3968016,13.176 L5.97301349,13.072 L5.65317341,13.288 L3.73413293,14.512 L3.73413293,12.192 L3.31034483,11.872 C1.92703648,10.696 1.33533233,9.072 1.33533233,7.152 C1.33533233,3.736 4.37381309,1.232 8.42778611,1.232 C11.1624188,1.176 14.6086957,3.632 14.8805597,7.152 C14.7686157,10.776 12.049975,13.28 8.31584208,13.28 Z M3.30234883,7.256 C3.30234883,7.784 3.73413293,8.216 4.26186907,8.216 C4.7896052,8.216 5.22138931,7.784 5.22138931,7.256 C5.22138931,7 5.11744128,6.76 4.94152924,6.576 C4.76561719,6.392 4.51774113,6.296 4.26186907,6.296 C3.73413293,6.296 3.30234883,6.728 3.30234883,7.256 Z M7.03648176,7.256 C7.03648176,7.784 7.46826587,8.216 7.996002,8.216 C8.52373813,8.216 8.95552224,7.784 8.95552224,7.256 C8.95552224,7 8.85157421,6.76 8.67566217,6.576 C8.49975012,6.392 8.25187406,6.296 7.996002,6.296 C7.46826587,6.296 7.03648176,6.728 7.03648176,7.256 Z M10.7706147,7.256 C10.7706147,7.784 11.2023988,8.216 11.7301349,8.216 C12.2578711,8.216 12.6896552,7.784 12.6896552,7.256 C12.6896552,7 12.5857071,6.76 12.4097951,6.576 C12.2258871,6.392 11.986007,6.296 11.7301349,6.296 C11.2023988,6.296 10.7706147,6.728 10.7706147,7.256 Z" id="Shape" fill="#FFFFFF"></path>
            </g>
        </g>
    </g>
</svg>