<?xml version="1.0" encoding="UTF-8"?>
<svg width="20px" height="20px" viewBox="0 0 20 20" version="1.1" xmlns="http://www.w3.org/2000/svg" xmlns:xlink="http://www.w3.org/1999/xlink">
    <title>open</title>
    <g id="icon" stroke="none" stroke-width="1" fill="none" fill-rule="evenodd">
        <g id="Artboard" transform="translate(-168.000000, -137.000000)">
            <g id="open" transform="translate(168.000000, 137.000000)">
                <path d="M16.8637473,8.75174228 C16.6964959,7.78235779 16.3192386,6.86128683 15.7584229,6.05310059 C14.4560874,4.1432078 12.2938702,3.00053781 9.98221103,3.00053781 C7.67055188,3.00053781 5.50833462,4.1432078 4.2059992,6.05310059 C3.64840346,6.86207187 3.27426927,7.78309096 3.10976341,8.75174228 C2.71564395,10.9490661 3.3973977,13.2022583 4.94358132,14.8125 C4.97151103,14.841422 5.00999226,14.8577564 5.05019864,14.8577564 C5.09040502,14.8577564 5.12888626,14.841422 5.15681596,14.8125 L5.7874312,14.1846813 C5.84401393,14.1270316 5.84401393,14.0346894 5.7874312,13.9770397 C4.55877325,12.6916082 3.99064315,10.9119143 4.24724787,9.15234375 C4.37015209,8.2707832 4.69900241,7.43057424 5.20715332,6.69979581 C6.29177539,5.12963983 8.07840665,4.19234711 9.98675537,4.19234711 C11.8951041,4.19234711 13.6817353,5.12963983 14.7663574,6.69979581 C15.275551,7.4299496 15.6042852,8.27047402 15.7255637,9.15234375 C15.9796634,10.9090404 15.4119882,12.6850234 14.1860795,13.9686501 C14.1313868,14.0267899 14.1313868,14.1174528 14.1860795,14.1755926 L14.8138983,14.8034113 C14.841828,14.8323334 14.8803092,14.8486677 14.9205156,14.8486677 C14.960722,14.8486677 14.9992032,14.8323334 15.0271329,14.8034113 C16.5714848,13.1957365 17.254081,10.9465728 16.8637473,8.75174228 Z" id="Path" fill="#46494D" fill-rule="nonzero"></path>
                <path d="M7.48491877,6.81165661 C5.86052835,8.0933897 5.46805472,10.3957004 6.5760498,12.1432218 C6.59774515,12.1772679 6.63238966,12.2009909 6.67197677,12.2089083 C6.71156388,12.2168257 6.75266767,12.2082524 6.7857888,12.1851696 L7.51777788,11.6783003 C7.58205428,11.6333229 7.59906825,11.5454689 7.55623002,11.4797474 C6.82849656,10.2953112 7.05930361,8.75893348 8.10293129,7.84060539 C9.14655897,6.9222773 10.6998158,6.88878864 11.7820541,7.76128246 C12.8642924,8.63377627 13.1611037,10.1587784 12.4850963,11.3734797 C12.4653009,11.4057068 12.4591876,11.4445022 12.4681133,11.4812551 C12.477039,11.5180081 12.5002653,11.5496781 12.5326372,11.5692361 L13.284901,12.0397505 C13.3192818,12.0613 13.3608882,12.0681071 13.4003439,12.0586378 C13.4397996,12.0491684 13.4737846,12.0242194 13.49464,11.9894132 C14.4313519,10.3634599 14.1195068,8.30586248 12.7430753,7.03048429 C11.279068,5.68304176 9.05582219,5.59051737 7.48491877,6.81165661 L7.48491877,6.81165661 Z" id="Path" fill="#46494D" fill-rule="nonzero"></path>
                <path d="M10.7079079,11.0057373 C11.1572806,10.6903728 11.3503587,10.1200938 11.1849966,9.59659983 C11.0196345,9.07310588 10.533998,8.71722034 9.98500755,8.71722034 C9.43601708,8.71722034 8.9503806,9.07310588 8.78501849,9.59659983 C8.61965639,10.1200938 8.81273454,10.6903728 9.26210716,11.0057373 L6.52151767,15.7458385 C6.38136378,15.9744627 6.37565378,16.2609666 6.50658706,16.4949935 C6.63752033,16.7290204 6.88466773,16.8740558 7.15283203,16.874235 L12.8080944,16.874235 C13.0728912,16.8745933 13.3177594,16.733639 13.450438,16.5044799 C13.5831166,16.2753209 13.5834429,15.9927816 13.4512939,15.7633168 L10.7079079,11.0057373 L10.7079079,11.0057373 Z M11.7803733,15.6801203 L8.18964178,15.6801203 C8.13710474,15.6795838 8.08877796,15.651274 8.06261811,15.6057098 C8.03645826,15.5601457 8.03637533,15.5041375 8.06240012,15.4584961 L9.85776589,12.3452703 C9.88524375,12.3005818 9.93394539,12.2733558 9.98640581,12.2733558 C10.0388662,12.2733558 10.0875679,12.3005818 10.1150457,12.3452703 L11.9104115,15.4584961 C11.9413133,15.5045727 11.9438949,15.5640493 11.9171018,15.6126302 C11.8903087,15.6612111 11.8386276,15.690761 11.7831698,15.689209 L11.7803733,15.6801203 L11.7803733,15.6801203 Z" id="Shape" fill="#46494D" fill-rule="nonzero"></path>
                <rect id="Rectangle-Copy-25" x="0" y="0" width="20" height="20"></rect>
            </g>
        </g>
    </g>
</svg>