<?xml version="1.0" encoding="UTF-8"?>
<svg width="20px" height="20px" viewBox="0 0 20 20" version="1.1" xmlns="http://www.w3.org/2000/svg" xmlns:xlink="http://www.w3.org/1999/xlink">
    <title>people-24px</title>
    <g id="icon" stroke="none" stroke-width="1" fill="none" fill-rule="evenodd">
        <g id="Artboard" transform="translate(-605.000000, -137.000000)">
            <g id="people-24px" transform="translate(605.000000, 137.000000)">
                <polygon id="Path" points="0 0 20 0 20 20 0 20"></polygon>
                <path d="M7.5,11.4583333 C5.55,11.4583333 1.66666667,12.4333333 1.66666667,14.375 L1.66666667,15.8333333 L13.3333333,15.8333333 L13.3333333,14.375 C13.3333333,12.4333333 9.45,11.4583333 7.5,11.4583333 Z M3.61666667,14.1666667 C4.31666667,13.6833333 6.00833333,13.125 7.5,13.125 C8.99166667,13.125 10.6833333,13.6833333 11.3833333,14.1666667 L3.61666667,14.1666667 Z M7.5,10 C9.10833333,10 10.4166667,8.69166667 10.4166667,7.08333333 C10.4166667,5.475 9.10833333,4.16666667 7.5,4.16666667 C5.89166667,4.16666667 4.58333333,5.475 4.58333333,7.08333333 C4.58333333,8.69166667 5.89166667,10 7.5,10 Z M7.5,5.83333333 C8.19166667,5.83333333 8.75,6.39166667 8.75,7.08333333 C8.75,7.775 8.19166667,8.33333333 7.5,8.33333333 C6.80833333,8.33333333 6.25,7.775 6.25,7.08333333 C6.25,6.39166667 6.80833333,5.83333333 7.5,5.83333333 Z M13.3666667,11.5083333 C14.3333333,12.2083333 15,13.1416667 15,14.375 L15,15.8333333 L18.3333333,15.8333333 L18.3333333,14.375 C18.3333333,12.6916667 15.4166667,11.7333333 13.3666667,11.5083333 L13.3666667,11.5083333 Z M12.5,10 C14.1083333,10 15.4166667,8.69166667 15.4166667,7.08333333 C15.4166667,5.475 14.1083333,4.16666667 12.5,4.16666667 C12.05,4.16666667 11.6333333,4.275 11.25,4.45833333 C11.775,5.2 12.0833333,6.10833333 12.0833333,7.08333333 C12.0833333,8.05833333 11.775,8.96666667 11.25,9.70833333 C11.6333333,9.89166667 12.05,10 12.5,10 Z" id="Shape" fill="#666666" fill-rule="nonzero"></path>
            </g>
        </g>
    </g>
</svg>