<?xml version="1.0" encoding="UTF-8"?>
<svg width="123px" height="104px" viewBox="0 0 123 104" version="1.1" xmlns="http://www.w3.org/2000/svg" xmlns:xlink="http://www.w3.org/1999/xlink">
    <title>Group</title>
    <defs>
        <path d="M22.0664528,0.418519993 L22.0664528,0.434247668 L20.3926977,0.434247668 C19.0370083,0.434247668 17.7073898,0.567932908 16.4273061,0.824818272 L16.4273061,0.824818272 C15.108116,1.08956747 13.8306394,1.48538063 12.613126,1.9939088 L12.613126,1.9939088 C11.3747558,2.51030081 10.1937418,3.14989294 9.09094054,3.89433623 L9.09094054,3.89433623 C7.97249675,4.64664337 6.93487291,5.50642295 5.9884974,6.45532603 L5.9884974,6.45532603 C5.04472898,7.40685039 4.18960179,8.45011951 3.44136551,9.5746483 L3.44136551,9.5746483 C2.7009505,10.6834494 2.0674264,11.8708889 1.55122157,13.1159965 L1.55122157,13.1159965 C1.04283803,14.3427552 0.65177377,15.6245607 0.388457167,16.9483067 L0.388457167,16.9483067 C0.132961849,18.2379761 0,19.5748285 0,20.9352724 L0,20.9352724 L0,22.4294016 L0,23.9235307 L0,26.3744268 L0,33.7061448 L0,33.9866216 L0,34.2697198 L0.0417135213,34.2697198 C0.101676708,35.2238654 0.226817272,36.1649047 0.417135213,37.087595 L0.417135213,37.087595 C0.623095724,38.1098939 0.912483278,39.1112225 1.2696553,40.073232 L1.2696553,40.073232 C1.64768409,41.0955309 2.10653282,42.0863744 2.63577313,43.0247924 L2.63577313,43.0247924 C3.17283471,43.978938 3.78289496,44.8859006 4.4503113,45.7299525 L4.4503113,45.7299525 L4.65105762,45.9815953 L4.84658975,46.2253743 L5.06819284,46.0025656 L5.28979592,45.7797568 L8.51737963,42.5346132 L8.68684081,42.3616087 L8.85890908,42.1912256 L8.71551885,41.9946297 L8.57212862,41.800655 C8.13674374,41.2134884 7.74046529,40.5948666 7.39632874,39.942168 L7.39632874,39.942168 C7.0495851,39.3025759 6.75237626,38.6315284 6.50991641,37.9473745 L6.50991641,37.9473745 C6.27006367,37.2763271 6.07453154,36.5738242 5.93114131,35.8503512 L5.93114131,35.8503512 C5.79557236,35.1504696 5.70432403,34.4296178 5.6704318,33.7061448 L5.6704318,33.7061448 L5.6704318,22.4294016 L5.6704318,22.1489247 L5.6704318,21.8658265 L5.65218213,21.8658265 L5.65218213,20.9352724 C5.65218213,19.9522927 5.75125175,18.987662 5.9337484,18.0518653 L5.9337484,18.0518653 C6.12406634,17.0950984 6.40823971,16.1671655 6.77062592,15.289037 L6.77062592,15.289037 C7.14344052,14.3873169 7.60489635,13.5301586 8.13935084,12.7254259 L8.13935084,12.7254259 C8.67901952,11.9154506 9.29950815,11.1579009 9.98256706,10.4737471 L9.98256706,10.4737471 L10.1129218,10.3426831 C10.7620885,9.70571226 11.4686113,9.12640955 12.2272759,8.61788138 L12.2272759,8.61788138 C13.0224399,8.08051914 13.8801742,7.619174 14.7718007,7.24433107 L14.7718007,7.24433107 C15.6451776,6.87997326 16.5706963,6.59425383 17.5248931,6.40290045 L17.5248931,6.40290045 C18.4556261,6.21678962 19.4150371,6.11718101 20.3926977,6.11718101 L20.3926977,6.11718101 L22.6295853,6.11718101 L25.4947828,6.11718101 L31.5302079,6.11718101 L33.8427012,6.11718101 L41.3328854,6.11718101 L46.341115,6.11718101 L58.9151346,6.11718101 L61.0659881,6.11718101 L61.0659881,8.27187253 L61.0659881,20.2616037 L61.0659881,26.9615933 L61.0659881,29.9917921 L61.0659881,30.2748903 L61.0659881,30.5579884 L61.0790235,30.5579884 L61.0790235,32.9774291 L61.0790235,33.0953867 L61.0764164,33.3286806 L61.063381,33.6956597 L61.0555597,33.9892429 L61.0425242,34.2802049 L61.3345188,34.2802049 L61.6265135,34.2802049 L66.1550376,34.2802049 L66.4287826,34.2802049 L66.6999205,34.2802049 L66.7077418,34.0049706 L66.7155631,33.7323576 L66.7259915,33.3653785 L66.7259915,33.3601359 L66.7259915,33.3548934 L66.7285986,32.985293 L66.7312057,32.9774291 L66.7312057,20.9352724 L66.7285986,20.9274086 L66.7259915,20.5447018 L66.7259915,20.5394593 L66.7259915,20.5315954 L66.7181702,20.2039355 L66.7181702,20.1567525 L66.7181702,5.55360598 L66.7181702,1.00044398 L66.7181702,0.717345824 L66.7181702,0.434247668 L66.4366039,0.434247668 L66.1550376,0.434247668 L61.6291206,0.434247668 L46.341115,0.434247668 L34.4058338,0.434247668 L34.4058338,0.418519993 L22.0664528,0.418519993 Z" id="path-1"></path>
        <linearGradient x1="1.96393186%" y1="62.3207346%" x2="107.372202%" y2="29.9303762%" id="linearGradient-3">
            <stop stop-color="#00D1FF" offset="0%"></stop>
            <stop stop-color="#00F9C3" offset="100%"></stop>
        </linearGradient>
    </defs>
    <g id="Page-1" stroke="none" stroke-width="1" fill="none" fill-rule="evenodd">
        <g id="登录" transform="translate(-126.000000, -124.000000)">
            <g id="Group" transform="translate(126.000000, 124.000000)">
                <g id="Group-22" transform="translate(0.000000, 80.000000)" fill="#FFFFFF">
                    <path d="M7.117,5.35646667 C8.81033333,5.35646667 10.1556667,5.84713333 11.1536667,6.8278 C12.151,7.80846667 12.6496667,9.2458 12.6496667,11.1404667 L12.6496667,18.8111333 L10.2356667,18.8111333 L10.2356667,11.4171333 C10.2356667,10.1264667 9.925,9.1538 9.305,8.4998 C8.685,7.84646667 7.79633333,7.5198 6.639,7.5198 C5.33166667,7.5198 4.30033333,7.90046667 3.54633333,8.6638 C2.79166667,9.42646667 2.41433333,10.5204667 2.41433333,11.9458 L2.41433333,18.8111333 L0.000333333333,18.8111333 L0.000333333333,5.48246667 L2.31366667,5.48246667 L2.31366667,7.49446667 C2.79966667,6.80646667 3.45766667,6.27846667 4.28766667,5.9098 C5.11766667,5.54113333 6.061,5.35646667 7.117,5.35646667" id="Fill-1"></path>
                    <path d="M21.6928667,16.8496 C22.5475333,16.8496 23.3148667,16.6522667 23.9935333,16.2582667 C24.6728667,15.8642667 25.2055333,15.3109333 25.5908667,14.5982667 C25.9762,13.8862667 26.1695333,13.0689333 26.1695333,12.1462667 C26.1695333,11.2242667 25.9762,10.4069333 25.5908667,9.69493333 C25.2055333,8.98226667 24.6728667,8.43293333 23.9935333,8.0476 C23.3148667,7.6616 22.5475333,7.46893333 21.6928667,7.46893333 C20.8375333,7.46893333 20.0702,7.6616 19.3915333,8.0476 C18.7128667,8.43293333 18.1762,8.98226667 17.7822,9.69493333 C17.3882,10.4069333 17.1915333,11.2242667 17.1915333,12.1462667 C17.1915333,13.0689333 17.3882,13.8862667 17.7822,14.5982667 C18.1762,15.3109333 18.7128667,15.8642667 19.3915333,16.2582667 C20.0702,16.6522667 20.8375333,16.8496 21.6928667,16.8496 M21.6928667,18.9616 C20.3682,18.9616 19.1782,18.6689333 18.1215333,18.0822667 C17.0655333,17.4949333 16.2395333,16.6862667 15.6448667,15.6549333 C15.0495333,14.6236 14.7515333,13.4542667 14.7515333,12.1462667 C14.7515333,10.8389333 15.0495333,9.6696 15.6448667,8.63826667 C16.2395333,7.6076 17.0655333,6.80293333 18.1215333,6.22426667 C19.1782,5.6456 20.3682,5.35626667 21.6928667,5.35626667 C23.0175333,5.35626667 24.2035333,5.6456 25.2508667,6.22426667 C26.2988667,6.80293333 27.1208667,7.6076 27.7162,8.63826667 C28.3108667,9.6696 28.6088667,10.8389333 28.6088667,12.1462667 C28.6088667,13.4542667 28.3108667,14.6236 27.7162,15.6549333 C27.1208667,16.6862667 26.2988667,17.4949333 25.2508667,18.0822667 C24.2035333,18.6689333 23.0175333,18.9616 21.6928667,18.9616" id="Fill-3"></path>
                    <path d="M36.4448,16.8496 C37.2828,16.8496 38.0454667,16.6522667 38.7334667,16.2582667 C39.4201333,15.8642667 39.9568,15.3109333 40.3428,14.5982667 C40.7281333,13.8862667 40.9208,13.0689333 40.9208,12.1462667 C40.9208,11.2242667 40.7281333,10.4069333 40.3428,9.69493333 C39.9568,8.98226667 39.4201333,8.43293333 38.7334667,8.0476 C38.0454667,7.6616 37.2828,7.46893333 36.4448,7.46893333 C35.5894667,7.46893333 34.8221333,7.6616 34.1434667,8.0476 C33.4641333,8.43293333 32.9281333,8.98226667 32.5341333,9.69493333 C32.1401333,10.4069333 31.9434667,11.2242667 31.9434667,12.1462667 C31.9434667,13.0689333 32.1401333,13.8862667 32.5341333,14.5982667 C32.9281333,15.3109333 33.4641333,15.8642667 34.1434667,16.2582667 C34.8221333,16.6522667 35.5894667,16.8496 36.4448,16.8496 L36.4448,16.8496 Z M43.3101333,0.150933333 L43.3101333,18.8109333 L40.9968,18.8109333 L40.9968,16.6982667 C40.4601333,17.4362667 39.7808,17.9982667 38.9594667,18.3836 C38.1381333,18.7689333 37.2328,18.9616 36.2434667,18.9616 C34.9528,18.9616 33.7954667,18.6769333 32.7728,18.1069333 C31.7501333,17.5369333 30.9494667,16.7362667 30.3714667,15.7049333 C29.7928,14.6742667 29.5034667,13.4882667 29.5034667,12.1462667 C29.5034667,10.8056 29.7928,9.6236 30.3714667,8.60026667 C30.9494667,7.5776 31.7501333,6.7816 32.7728,6.2116 C33.7954667,5.6416 34.9528,5.35626667 36.2434667,5.35626667 C37.1988,5.35626667 38.0794667,5.53693333 38.8841333,5.89693333 C39.6888,6.2576 40.3594667,6.79026667 40.8961333,7.49426667 L40.8961333,0.150933333 L43.3101333,0.150933333 Z" id="Fill-5"></path>
                    <path d="M52.1271333,7.39353333 C50.9704667,7.39353333 50.0018,7.74553333 49.2224667,8.44953333 C48.4431333,9.1542 47.9858,10.0762 47.8518,11.2162 L56.4018,11.2162 C56.2684667,10.0928667 55.8111333,9.17486667 55.0311333,8.4622 C54.2524667,7.7502 53.2838,7.39353333 52.1271333,7.39353333 M58.7158,12.2222 C58.7158,12.4062 58.6991333,12.6495333 58.6658,12.9515333 L47.8518,12.9515333 C48.0024667,14.1248667 48.5178,15.0682 49.3978,15.7808667 C50.2791333,16.4935333 51.3724667,16.8495333 52.6804667,16.8495333 C54.2731333,16.8495333 55.5558,16.3128667 56.5284667,15.2402 L57.8611333,16.7995333 C57.2571333,17.5035333 56.5064667,18.0395333 55.6104667,18.4088667 C54.7131333,18.7775333 53.7111333,18.9615333 52.6051333,18.9615333 C51.1964667,18.9615333 49.9471333,18.6722 48.8578,18.0942 C47.7678,17.5155333 46.9251333,16.7068667 46.3304667,15.6675333 C45.7351333,14.6282 45.4371333,13.4542 45.4371333,12.1462 C45.4371333,10.8555333 45.7264667,9.6902 46.3051333,8.65086667 C46.8838,7.61153333 47.6798,6.80286667 48.6944667,6.2242 C49.7084667,5.64553333 50.8524667,5.3562 52.1271333,5.3562 C53.4011333,5.3562 54.5364667,5.64553333 55.5344667,6.2242 C56.5318,6.80286667 57.3111333,7.61153333 57.8731333,8.65086667 C58.4351333,9.6902 58.7158,10.8808667 58.7158,12.2222" id="Fill-7"></path>
                    <path d="M65.7215333,1.98666667 C64.2802,1.98666667 63.5595333,2.766 63.5595333,4.32533333 L63.5595333,5.48266667 L67.4315333,5.48266667 L67.4315333,7.46933333 L63.6095333,7.46933333 L63.6095333,18.8113333 L61.1948667,18.8113333 L61.1948667,7.46933333 L58.9315333,7.46933333 L58.9315333,5.48266667 L61.1948667,5.48266667 L61.1948667,4.30066667 C61.1948667,2.976 61.5808667,1.928 62.3515333,1.15666667 C63.1235333,0.385333333 64.2048667,0 65.5962,0 C66.1328667,0 66.6355333,0.0673333333 67.1048667,0.201333333 C67.5742,0.335333333 67.9768667,0.528 68.3122,0.779333333 L67.5828667,2.61533333 C67.0295333,2.196 66.4088667,1.98666667 65.7215333,1.98666667" id="Fill-9"></path>
                    <path d="M81.8211333,18.9114667 C81.5364667,18.9114667 81.2891333,18.8068 81.0798,18.5974667 C80.8698,18.3881333 80.7651333,18.1321333 80.7651333,17.8301333 C80.7651333,17.5288 80.8698,17.2768 81.0798,17.0761333 C81.2891333,16.8741333 81.5364667,16.7741333 81.8211333,16.7741333 C82.1064667,16.7741333 82.3538,16.8741333 82.5631333,17.0761333 C82.7731333,17.2768 82.8778,17.5288 82.8778,17.8301333 C82.8778,18.1321333 82.7731333,18.3881333 82.5631333,18.5974667 C82.3538,18.8068 82.1064667,18.9114667 81.8211333,18.9114667" id="Fill-15"></path>
                    <path d="M80.549,5.4824 L74.0863333,20.1437333 C73.5156667,21.5017333 72.8496667,22.4577333 72.087,23.0110667 C71.3236667,23.5644 70.4056667,23.8410667 69.333,23.8410667 C68.679,23.8410667 68.0456667,23.7357333 67.4343333,23.5264 C66.8216667,23.3170667 66.315,23.0110667 65.9123333,22.6084 L66.9436667,20.7977333 C67.631,21.4517333 68.427,21.7784 69.333,21.7784 C69.9196667,21.7784 70.4096667,21.6237333 70.8043333,21.3130667 C71.1983333,21.0030667 71.5543333,20.4704 71.8723333,19.7164 L72.3003333,18.7857333 L66.4156667,5.4824 L68.9303333,5.4824 L73.583,16.1450667 L78.185,5.4824 L80.549,5.4824 Z" id="Fill-12"></path>
                    <path d="M102.185067,5.583 C103.811067,5.583 105.089733,6.06033333 106.0204,7.01633333 C106.9504,7.97166667 107.4164,9.347 107.4164,11.1403333 L107.4164,18.811 L106.1584,18.811 L106.1584,11.2416667 C106.1584,9.76566667 105.7984,8.64233333 105.077067,7.87166667 C104.3564,7.10033333 103.3504,6.71433333 102.059733,6.71433333 C100.5844,6.71433333 99.4150667,7.17566667 98.5510667,8.09766667 C97.6877333,9.01966667 97.2557333,10.2603333 97.2557333,11.8196667 L97.2557333,18.811 L95.9990667,18.811 L95.9990667,11.2416667 C95.9990667,9.76566667 95.6384,8.64233333 94.9177333,7.87166667 C94.1964,7.10033333 93.1904,6.71433333 91.8990667,6.71433333 C90.4237333,6.71433333 89.2544,7.17566667 88.3917333,8.09766667 C87.5277333,9.01966667 87.0957333,10.2603333 87.0957333,11.8196667 L87.0957333,18.811 L85.8384,18.811 L85.8384,5.68366667 L87.0457333,5.68366667 L87.0457333,8.49966667 C87.4817333,7.57766667 88.1317333,6.861 88.9950667,6.34966667 C89.8584,5.83833333 90.8850667,5.583 92.0757333,5.583 C93.2657333,5.583 94.2764,5.851 95.1057333,6.38766667 C95.9357333,6.92433333 96.5270667,7.71233333 96.8790667,8.75166667 C97.3144,7.779 97.9977333,7.00766667 98.9284,6.43833333 C99.8590667,5.86766667 100.945067,5.583 102.185067,5.583" id="Fill-17"></path>
                    <path d="M116.312,6.68946667 C115.39,6.68946667 114.56,6.8948 113.822667,7.30546667 C113.084667,7.71613333 112.493333,8.2948 112.049333,9.0408 C111.604667,9.7868 111.35,10.6294667 111.282667,11.5681333 L121.342,11.5681333 C121.292,10.6294667 121.04,9.7908 120.587333,9.05346667 C120.134667,8.31546667 119.54,7.73746667 118.801333,7.31813333 C118.064,6.8988 117.234667,6.68946667 116.312,6.68946667 L116.312,6.68946667 Z M122.548667,12.5494667 L111.257333,12.5494667 C111.290667,13.5714667 111.550667,14.4814667 112.036667,15.2781333 C112.522667,16.0741333 113.181333,16.6901333 114.011333,17.1261333 C114.840667,17.5621333 115.775333,17.7801333 116.815333,17.7801333 C117.67,17.7801333 118.462667,17.6248 119.191333,17.3148 C119.920667,17.0048 120.528667,16.5474667 121.015333,15.9441333 L121.744,16.7741333 C121.174667,17.4614667 120.457333,17.9894667 119.594,18.3588 C118.730667,18.7274667 117.796,18.9114667 116.79,18.9114667 C115.482667,18.9114667 114.317333,18.6268 113.294667,18.0568 C112.271333,17.4861333 111.470667,16.6988 110.892667,15.6928 C110.314,14.6868 110.024667,13.5381333 110.024667,12.2474667 C110.024667,10.9728 110.298,9.8288 110.842667,8.8148 C111.387333,7.80013333 112.137333,7.00813333 113.093333,6.43813333 C114.048667,5.86813333 115.122,5.5828 116.312,5.5828 C117.502667,5.5828 118.571333,5.86346667 119.518667,6.42546667 C120.465333,6.9868 121.212,7.7708 121.756667,8.7768 C122.301333,9.7828 122.574667,10.9228 122.574667,12.1968 L122.548667,12.5494667 Z" id="Fill-19"></path>
                </g>
                <g id="Group-6" transform="translate(28.000000, 0.000000)">
                    <path d="M33.3669064,23.1109342 C33.8048984,23.1109342 34.2272478,23.2000577 34.6104907,23.3599557 C35.0093763,23.5250963 35.3717625,23.7714965 35.6689713,24.0703224 C35.9687873,24.3691482 36.2112471,24.733506 36.3754941,25.1345617 C36.5345269,25.5225111 36.6257752,25.9471583 36.6257752,26.3875332 C36.6257752,26.8252868 36.5345269,27.2525553 36.3754941,27.6378834 C36.2112471,28.0389391 35.9687873,28.4032969 35.6689713,28.7021227 C35.3717625,29.0035699 35.0093763,29.2473488 34.6104907,29.4124894 C34.2272478,29.5723874 33.8048984,29.6641322 33.3669064,29.6641322 C32.9289144,29.6641322 32.506565,29.5723874 32.1207149,29.4124894 C31.7218294,29.2473488 31.3594432,29.0035699 31.0622343,28.7021227 C30.7650255,28.4032969 30.5225656,28.0389391 30.3557116,27.6378834 C30.1992859,27.2525553 30.1080375,26.8252868 30.1080375,26.3875332 C30.1080375,25.9471583 30.1966788,25.5225111 30.3557116,25.1345617 C30.5225656,24.733506 30.7650255,24.3717695 31.0622343,24.0703224 C31.3620503,23.7714965 31.7218294,23.5250963 32.1207149,23.3599557 C32.506565,23.2000577 32.9289144,23.1109342 33.3669064,23.1109342 L33.3669064,23.1109342 Z M45.8627131,23.1109342 C46.3007051,23.1109342 46.7230545,23.2000577 47.1062974,23.3599557 C47.505183,23.5250963 47.8675692,23.7714965 48.1647781,24.0703224 C48.464594,24.3691482 48.7070538,24.733506 48.8739079,25.1345617 C49.0329407,25.5225111 49.1189749,25.9471583 49.1189749,26.3875332 C49.1189749,26.8252868 49.0303336,27.2525553 48.8739079,27.6378834 C48.7070538,28.0389391 48.464594,28.4032969 48.1647781,28.7021227 C47.8675692,29.0035699 47.505183,29.2473488 47.1062974,29.4124894 C46.7230545,29.5723874 46.3007051,29.6641322 45.8627131,29.6641322 C45.4247211,29.6641322 45.0023717,29.5723874 44.6191287,29.4124894 C44.2176361,29.2473488 43.857857,29.0035699 43.5606481,28.7021227 C43.2608322,28.4032969 43.0183724,28.0389391 42.8515183,27.6378834 C42.6950926,27.2525553 42.6038442,26.8252868 42.6038442,26.3875332 C42.6038442,25.9471583 42.6924855,25.5225111 42.8515183,25.1345617 C43.0183724,24.733506 43.2608322,24.3717695 43.5606481,24.0703224 C43.857857,23.7714965 44.2176361,23.5250963 44.6191287,23.3599557 C45.0023717,23.2000577 45.4247211,23.1109342 45.8627131,23.1109342 L45.8627131,23.1109342 Z M21.6636566,23.1109342 C22.1016485,23.1109342 22.5239979,23.2000577 22.9072409,23.3599557 C23.3087336,23.5250963 23.6685127,23.7714965 23.9683286,24.0703224 C24.2655375,24.3691482 24.5079973,24.733506 24.6748514,25.1345617 C24.8338842,25.5225111 24.9225254,25.9471583 24.9225254,26.3875332 C24.9225254,26.8252868 24.8338842,27.2525553 24.6748514,27.6378834 C24.5079973,28.0389391 24.2655375,28.4032969 23.9683286,28.7021227 C23.6685127,29.0035699 23.3087336,29.2473488 22.9072409,29.4124894 C22.5239979,29.5723874 22.1016485,29.6641322 21.6636566,29.6641322 C21.2256646,29.6641322 20.8033152,29.5723874 20.4200722,29.4124894 C20.0185796,29.2473488 19.6588004,29.0035699 19.3615916,28.7021227 C19.0617757,28.4032969 18.8193158,28.0389391 18.6524617,27.6378834 C18.496036,27.2525553 18.4073948,26.8252868 18.4073948,26.3875332 C18.4073948,25.9471583 18.4934289,25.5225111 18.6524617,25.1345617 C18.8193158,24.733506 19.0617757,24.3717695 19.3615916,24.0703224 C19.6588004,23.7714965 20.0185796,23.5250963 20.4200722,23.3599557 C20.8033152,23.2000577 21.2256646,23.1109342 21.6636566,23.1109342 L21.6636566,23.1109342 Z M12.3641484,45.4625821 C12.955959,45.8505314 13.5790547,46.2017828 14.2256143,46.5032299 C14.8565313,46.7994345 15.5213406,47.0536985 16.2070066,47.2581583 C16.87703,47.4599968 17.5679102,47.612031 18.274433,47.7168822 C18.9653132,47.8164908 19.674443,47.8715377 20.3913942,47.8715377 L20.6729604,47.8715377 L20.9545267,47.8715377 L20.9545267,47.8820228 L41.9312137,47.8820228 L41.9546776,47.8820228 L41.9989982,47.8846441 L42.0198549,47.8872653 L42.7368061,48.0026016 L42.76027,48.0078442 L42.8071977,48.0183293 L42.8280544,48.0235719 L54.7320506,52.0341291 L54.6590519,46.7155535 L54.6434093,45.6329652 L54.6434093,45.49928 L54.6408022,45.3629734 L54.745086,45.2790925 L54.8493698,45.189969 L55.6888545,44.4979513 C56.1059897,44.1519424 56.5048752,43.7797208 56.8855111,43.3891502 C57.266147,42.993337 57.6259261,42.5791749 57.9622414,42.1466638 L57.9622414,42.1466638 C58.2985566,41.7089102 58.6140151,41.2580502 58.8955814,40.7993263 C59.1771477,40.3406025 59.4378572,39.8582871 59.6724957,39.360244 L59.7116022,39.2763631 L59.844564,38.9854011 L59.9201698,38.8202605 L59.9957755,38.6551199 L60.1756651,38.6551199 L60.3555546,38.6551199 L65.1865018,38.6551199 L65.574959,38.6551199 L65.9634162,38.6551199 L65.8434898,39.0273416 L65.7209563,39.396942 C65.6609931,39.5804315 65.5906016,39.7848913 65.5123887,40.0024574 C65.436783,40.2121598 65.3585701,40.411377 65.2855714,40.6027304 C65.2047515,40.8045689 65.1213245,41.0037861 65.0352903,41.1977608 C64.9492562,41.3995993 64.8606149,41.5961952 64.7745808,41.7796848 C64.4930145,42.3747151 64.1827702,42.9566391 63.846455,43.5228354 C63.5127468,44.0837892 63.1477535,44.6342578 62.7566892,45.1689988 C62.3786604,45.6827695 61.9771678,46.1808126 61.5548184,46.6578854 L61.5548184,46.6578854 C61.161147,47.1035028 60.7414047,47.5333926 60.3086269,47.9449335 L60.420732,55.9529415 L60.4676597,59.1456596 L60.4728739,59.5414727 L60.4780881,59.9372859 L60.1026664,59.8114645 L59.7272447,59.6856431 L56.7108357,58.671208 L41.4671508,53.5413646 L20.9545267,53.5466072 L20.9545267,53.5570923 L20.6729604,53.5570923 L20.3913942,53.5570923 C19.3198781,53.5570923 18.2613975,53.4705901 17.2237736,53.3054495 C16.1600789,53.1376876 15.1276692,52.8860448 14.134366,52.5636275 C13.1175989,52.230725 12.132117,51.8218054 11.1961698,51.3394901 C10.241973,50.8545534 9.33209684,50.2909784 8.47175546,49.6644926 L8.20583176,49.4678967 L7.93990807,49.273922 L8.17193953,49.0406282 L8.40397099,48.8047131 L11.6576256,45.5333566 L11.8192655,45.3734586 L11.9809054,45.208318 L12.1738305,45.3367607 L12.3641484,45.4625821 Z" id="Fill-1" fill="#FFFFFF"></path>
                    <g id="Group-5" transform="translate(0.000000, 0.074182)">
                        <mask id="mask-2" fill="white">
                            <use xlink:href="#path-1"></use>
                        </mask>
                        <g id="Clip-4"></g>
                        <path d="M22.0664528,0.418519993 L22.0664528,0.434247668 L20.3926977,0.434247668 C19.0370083,0.434247668 17.7073898,0.567932908 16.4273061,0.824818272 L16.4273061,0.824818272 C15.108116,1.08956747 13.8306394,1.48538063 12.613126,1.9939088 L12.613126,1.9939088 C11.3747558,2.51030081 10.1937418,3.14989294 9.09094054,3.89433623 L9.09094054,3.89433623 C7.97249675,4.64664337 6.93487291,5.50642295 5.9884974,6.45532603 L5.9884974,6.45532603 C5.04472898,7.40685039 4.18960179,8.45011951 3.44136551,9.5746483 L3.44136551,9.5746483 C2.7009505,10.6834494 2.0674264,11.8708889 1.55122157,13.1159965 L1.55122157,13.1159965 C1.04283803,14.3427552 0.65177377,15.6245607 0.388457167,16.9483067 L0.388457167,16.9483067 C0.132961849,18.2379761 0,19.5748285 0,20.9352724 L0,20.9352724 L0,22.4294016 L0,23.9235307 L0,26.3744268 L0,33.7061448 L0,33.9866216 L0,34.2697198 L0.0417135213,34.2697198 C0.101676708,35.2238654 0.226817272,36.1649047 0.417135213,37.087595 L0.417135213,37.087595 C0.623095724,38.1098939 0.912483278,39.1112225 1.2696553,40.073232 L1.2696553,40.073232 C1.64768409,41.0955309 2.10653282,42.0863744 2.63577313,43.0247924 L2.63577313,43.0247924 C3.17283471,43.978938 3.78289496,44.8859006 4.4503113,45.7299525 L4.4503113,45.7299525 L4.65105762,45.9815953 L4.84658975,46.2253743 L5.06819284,46.0025656 L5.28979592,45.7797568 L8.51737963,42.5346132 L8.68684081,42.3616087 L8.85890908,42.1912256 L8.71551885,41.9946297 L8.57212862,41.800655 C8.13674374,41.2134884 7.74046529,40.5948666 7.39632874,39.942168 L7.39632874,39.942168 C7.0495851,39.3025759 6.75237626,38.6315284 6.50991641,37.9473745 L6.50991641,37.9473745 C6.27006367,37.2763271 6.07453154,36.5738242 5.93114131,35.8503512 L5.93114131,35.8503512 C5.79557236,35.1504696 5.70432403,34.4296178 5.6704318,33.7061448 L5.6704318,33.7061448 L5.6704318,22.4294016 L5.6704318,22.1489247 L5.6704318,21.8658265 L5.65218213,21.8658265 L5.65218213,20.9352724 C5.65218213,19.9522927 5.75125175,18.987662 5.9337484,18.0518653 L5.9337484,18.0518653 C6.12406634,17.0950984 6.40823971,16.1671655 6.77062592,15.289037 L6.77062592,15.289037 C7.14344052,14.3873169 7.60489635,13.5301586 8.13935084,12.7254259 L8.13935084,12.7254259 C8.67901952,11.9154506 9.29950815,11.1579009 9.98256706,10.4737471 L9.98256706,10.4737471 L10.1129218,10.3426831 C10.7620885,9.70571226 11.4686113,9.12640955 12.2272759,8.61788138 L12.2272759,8.61788138 C13.0224399,8.08051914 13.8801742,7.619174 14.7718007,7.24433107 L14.7718007,7.24433107 C15.6451776,6.87997326 16.5706963,6.59425383 17.5248931,6.40290045 L17.5248931,6.40290045 C18.4556261,6.21678962 19.4150371,6.11718101 20.3926977,6.11718101 L20.3926977,6.11718101 L22.6295853,6.11718101 L25.4947828,6.11718101 L31.5302079,6.11718101 L33.8427012,6.11718101 L41.3328854,6.11718101 L46.341115,6.11718101 L58.9151346,6.11718101 L61.0659881,6.11718101 L61.0659881,8.27187253 L61.0659881,20.2616037 L61.0659881,26.9615933 L61.0659881,29.9917921 L61.0659881,30.2748903 L61.0659881,30.5579884 L61.0790235,30.5579884 L61.0790235,32.9774291 L61.0790235,33.0953867 L61.0764164,33.3286806 L61.063381,33.6956597 L61.0555597,33.9892429 L61.0425242,34.2802049 L61.3345188,34.2802049 L61.6265135,34.2802049 L66.1550376,34.2802049 L66.4287826,34.2802049 L66.6999205,34.2802049 L66.7077418,34.0049706 L66.7155631,33.7323576 L66.7259915,33.3653785 L66.7259915,33.3601359 L66.7259915,33.3548934 L66.7285986,32.985293 L66.7312057,32.9774291 L66.7312057,20.9352724 L66.7285986,20.9274086 L66.7259915,20.5447018 L66.7259915,20.5394593 L66.7259915,20.5315954 L66.7181702,20.2039355 L66.7181702,20.1567525 L66.7181702,5.55360598 L66.7181702,1.00044398 L66.7181702,0.717345824 L66.7181702,0.434247668 L66.4366039,0.434247668 L66.1550376,0.434247668 L61.6291206,0.434247668 L46.341115,0.434247668 L34.4058338,0.434247668 L34.4058338,0.418519993 L22.0664528,0.418519993 Z" id="Fill-3" fill="url(#linearGradient-3)" mask="url(#mask-2)"></path>
                    </g>
                </g>
            </g>
        </g>
    </g>
</svg>