<?xml version="1.0" encoding="UTF-8"?>
<svg width="18px" height="18px" viewBox="0 0 18 18" version="1.1" xmlns="http://www.w3.org/2000/svg" xmlns:xlink="http://www.w3.org/1999/xlink">
    <title>search</title>
    <g id="icon" stroke="none" stroke-width="1" fill="none" fill-rule="evenodd" opacity="0.75">
        <g id="Artboard" transform="translate(-40.000000, -101.000000)" fill-rule="nonzero">
            <g id="search" transform="translate(40.000000, 101.000000)">
                <path d="M11.3167548,12.1633157 C10.7862434,12.5922399 10.1992945,12.9252205 9.55590828,13.1622575 C8.91252203,13.3992945 8.22962962,13.5178131 7.49594355,13.5178131 C5.79153437,13.4783069 4.37495589,12.891358 3.24056436,11.7569665 C2.10617283,10.622575 1.51922397,9.20599648 1.4797178,7.50158731 C1.52486772,5.79717813 2.11181658,4.38059964 3.24620811,3.24620811 C4.37495591,2.11746031 5.79717812,1.53051147 7.49594356,1.4910053 C9.20035273,1.53051147 10.6169312,2.11746033 11.7513227,3.25185186 C12.8857143,4.38624339 13.4726631,5.80282188 13.5121693,7.50723105 C13.5121693,8.24091711 13.3936508,8.92380953 13.1566137,9.56719578 C12.9195767,10.210582 12.5865961,10.7918871 12.157672,11.3111111 L16.5315697,15.6850088 L15.6737213,16.5428572 L11.3167548,12.1633157 Z M7.49594356,12.3156967 C8.85608466,12.287478 9.99611992,11.8190476 10.8991182,10.9104057 C11.8077601,10.0017637 12.2761905,8.86737214 12.3044092,7.50723105 C12.2761905,6.14708995 11.8077601,5.00705469 10.8991182,4.10405644 C9.9904762,3.19541447 8.85608466,2.72698413 7.49594356,2.69876544 C6.13580247,2.72134039 5.00141094,3.18977072 4.09276895,4.0984127 C3.18412698,5.00705467 2.71569666,6.1414462 2.68747795,7.5015873 C2.72698412,8.86172839 3.2010582,10.0017637 4.0984127,10.9047619 C5.00141094,11.8134039 6.13580247,12.2818342 7.49594356,12.3156967 Z" id="Shape" fill="#686F74"></path>
                <rect id="Rectangle" fill="#000000" opacity="0" x="0" y="0" width="18" height="18"></rect>
            </g>
        </g>
    </g>
</svg>