<?xml version="1.0" encoding="UTF-8"?>
<svg width="18px" height="18px" viewBox="0 0 18 18" version="1.1" xmlns="http://www.w3.org/2000/svg" xmlns:xlink="http://www.w3.org/1999/xlink">
    <title>compass</title>
    <g id="icon" stroke="none" stroke-width="1" fill="none" fill-rule="evenodd">
        <g id="Artboard" transform="translate(-66.000000, -101.000000)" fill="#686F74" fill-rule="nonzero">
            <g id="compass" transform="translate(66.000000, 101.000000)">
                <path d="M8.75,0.205078125 C4.03828125,0.205078125 0.205078125,4.03828125 0.205078125,8.75 C0.205078125,13.4617187 4.03828125,17.2949219 8.75,17.2949219 C13.4617187,17.2949219 17.2949219,13.4617187 17.2949219,8.75 C17.2949219,4.03828125 13.4617187,0.205078125 8.75,0.205078125 Z M8.75,15.8707764 C4.8236084,15.8707764 1.62922363,12.6763916 1.62922363,8.75 C1.62922363,4.8236084 4.8236084,1.62922363 8.75,1.62922363 C12.6763916,1.62922363 15.8707764,4.8236084 15.8707764,8.75 C15.8707764,12.6763916 12.6763916,15.8707764 8.75,15.8707764 Z M5.34602051,12.1539795 L10.715332,10.715332 L12.1539063,5.34602051 L6.78493652,6.78496094 L5.34602051,12.1539795 Z M7.94763184,7.94770508 L10.1398926,7.36010742 L9.55258789,9.55266113 L7.36003418,10.139917 L7.94763184,7.94770508 L7.94763184,7.94770508 Z" id="Shape"></path>
            </g>
        </g>
    </g>
</svg>