<?xml version="1.0" encoding="UTF-8"?>
<svg width="20px" height="20px" viewBox="0 0 20 20" version="1.1" xmlns="http://www.w3.org/2000/svg" xmlns:xlink="http://www.w3.org/1999/xlink">
    <title>outline-supervisor_account-24px</title>
    <g id="icon" stroke="none" stroke-width="1" fill="none" fill-rule="evenodd">
        <g id="Artboard" transform="translate(-430.000000, -137.000000)">
            <g id="outline-supervisor_account-24px" transform="translate(430.000000, 137.000000)">
                <polygon id="Path" points="0 0 20 0 20 20 0 20"></polygon>
                <path d="M7.5,10 C9.10833333,10 10.4166667,8.69166667 10.4166667,7.08333333 C10.4166667,5.475 9.10833333,4.16666667 7.5,4.16666667 C5.89166667,4.16666667 4.58333333,5.475 4.58333333,7.08333333 C4.58333333,8.69166667 5.89166667,10 7.5,10 Z M7.5,5.83333333 C8.19166667,5.83333333 8.75,6.39166667 8.75,7.08333333 C8.75,7.775 8.19166667,8.33333333 7.5,8.33333333 C6.80833333,8.33333333 6.25,7.775 6.25,7.08333333 C6.25,6.39166667 6.80833333,5.83333333 7.5,5.83333333 Z M7.54166667,14.1666667 L3.975,14.1666667 C4.8,13.75 6.225,13.3333333 7.5,13.3333333 C7.59166667,13.3333333 7.69166667,13.3416667 7.78333333,13.3416667 C8.06666667,12.7333333 8.55833333,12.2333333 9.15,11.8333333 C8.54166667,11.725 7.96666667,11.6666667 7.5,11.6666667 C5.55,11.6666667 1.66666667,12.6416667 1.66666667,14.5833333 L1.66666667,15.8333333 L7.5,15.8333333 L7.5,14.5833333 C7.5,14.4416667 7.51666667,14.3 7.54166667,14.1666667 Z M13.75,12.0833333 C12.2166667,12.0833333 9.16666667,12.925 9.16666667,14.5833333 L9.16666667,15.8333333 L18.3333333,15.8333333 L18.3333333,14.5833333 C18.3333333,12.925 15.2833333,12.0833333 13.75,12.0833333 Z M14.7583333,10.5666667 C15.3916667,10.2083333 15.8333333,9.53333333 15.8333333,8.75 C15.8333333,7.6 14.9,6.66666667 13.75,6.66666667 C12.6,6.66666667 11.6666667,7.6 11.6666667,8.75 C11.6666667,9.53333333 12.1083333,10.2083333 12.7416667,10.5666667 C13.0416667,10.7333333 13.3833333,10.8333333 13.75,10.8333333 C14.1166667,10.8333333 14.4583333,10.7333333 14.7583333,10.5666667 Z" id="Shape" fill="#666666" fill-rule="nonzero"></path>
            </g>
        </g>
    </g>
</svg>