<?xml version="1.0" encoding="UTF-8"?>
<svg width="22px" height="22px" viewBox="0 0 22 22" version="1.1" xmlns="http://www.w3.org/2000/svg" xmlns:xlink="http://www.w3.org/1999/xlink">
    <title>question-line</title>
    <g id="icon" stroke="none" stroke-width="1" fill="none" fill-rule="evenodd">
        <g id="Artboard" transform="translate(-205.000000, -172.000000)">
            <g id="question-line" transform="translate(205.000000, 172.000000)">
                <path d="M11,20 C6.0293,20 2,15.9707 2,11 C2,6.0293 6.0293,2 11,2 C15.9707,2 20,6.0293 20,11 C20,15.9707 15.9707,20 11,20 Z M11,18.2 C14.9764502,18.2 18.2,14.9764502 18.2,11 C18.2,7.02354981 14.9764502,3.80000001 11,3.80000001 C7.02354987,3.80000001 3.80000016,7.02354987 3.80000016,11 C3.80000016,14.9764501 7.02354987,18.2 11,18.2 Z M10.1,13.7 L11.9,13.7 L11.9,15.5 L10.1,15.5 L10.1,13.7 Z M11.9,12.2195 L11.9,12.8 L10.1,12.8 L10.1,11.45 C10.1,10.9529437 10.5029437,10.55 11,10.55 C11.7111362,10.5499554 12.3003009,9.99825556 12.3470011,9.28865437 C12.3937014,8.57905319 11.8819221,7.9548981 11.1769253,7.86165497 C10.4719285,7.76841183 9.8154827,8.23805704 9.67609999,8.93540001 L7.9103,8.58170001 C8.21313699,7.06811989 9.56787427,5.9967681 11.1105028,6.05091931 C12.6531313,6.10507052 13.9294107,7.26877943 14.1253701,8.7998689 C14.3213294,10.3309584 13.3792667,11.7785859 11.9,12.2195 L11.9,12.2195 Z" id="Shape" fill="#666666" fill-rule="nonzero"></path>
                <rect id="Rectangle" x="0" y="0" width="22" height="22"></rect>
            </g>
        </g>
    </g>
</svg>