<?xml version="1.0" encoding="UTF-8"?>
<svg width="22px" height="22px" viewBox="0 0 22 22" version="1.1" xmlns="http://www.w3.org/2000/svg" xmlns:xlink="http://www.w3.org/1999/xlink">
    <title>phone-line</title>
    <g id="icon" stroke="none" stroke-width="1" fill="none" fill-rule="evenodd">
        <g id="Artboard" transform="translate(-164.000000, -27.000000)">
            <g id="phone-line" transform="translate(164.000000, 27.000000)">
                <g transform="translate(2.000000, 2.000000)" fill="#636166" fill-rule="nonzero" id="Shape">
                    <path d="M6.366,7.68199999 C7.30433589,9.33047822 8.66952178,10.6956641 10.318,11.634 L11.202,10.396 C11.4962196,9.98400367 12.0519254,9.85688701 12.496,10.1 C13.9103203,10.8729247 15.4722076,11.3377761 17.079,11.464 C17.5990657,11.505214 18,11.9393038 18,12.461 L18,16.923 C18,17.4358737 17.6121987,17.8656869 17.102,17.918 C16.5697719,17.9729476 16.0350569,18.0003175 15.5,18 C6.94000001,18 0,11.06 0,2.49999998 C0,1.962 0.027,1.428 0.0820000078,0.898000008 C0.134313109,0.387801285 0.564126346,-2.36302846e-08 1.077,-2.36302846e-08 L5.53900001,-2.36302846e-08 C6.06069624,-2.36302846e-08 6.49478599,0.400934264 6.53599999,0.921 C6.66222386,2.52779242 7.12707534,4.08967973 7.90000001,5.50399999 C8.14311299,5.94807455 8.01599633,6.50378044 7.60399999,6.798 L6.366,7.68199999 L6.366,7.68199999 Z M3.84400001,7.02499999 L5.74399999,5.66800001 C5.20478259,4.50409349 4.83535183,3.26884095 4.647,1.99999999 L2.01,1.99999999 C2.004,2.166 2.001,2.33299999 2.001,2.49999999 C1.99999999,9.95599999 8.04400001,16 15.5,16 C15.667,16 15.834,15.997 16,15.99 L16,13.353 C14.7311591,13.1646482 13.4959065,12.7952174 12.332,12.256 L10.975,14.156 C10.4286615,13.9437167 9.89800664,13.6930925 9.387,13.406 L9.32899999,13.373 C7.36757869,12.2567195 5.74328053,10.6324213 4.62700001,8.67100001 L4.59400001,8.613 C4.30690747,8.10199336 4.05628331,7.57133845 3.84400001,7.02499999 Z"></path>
                </g>
                <rect id="Rectangle" x="0" y="0" width="22" height="22"></rect>
            </g>
        </g>
    </g>
</svg>