<?xml version="1.0" encoding="UTF-8"?>
<svg width="20px" height="20px" viewBox="0 0 20 20" version="1.1" xmlns="http://www.w3.org/2000/svg" xmlns:xlink="http://www.w3.org/1999/xlink">
    <title>share-24px</title>
    <g id="icon" stroke="none" stroke-width="1" fill="none" fill-rule="evenodd">
        <g id="Artboard" transform="translate(-535.000000, -137.000000)">
            <g id="share-24px" transform="translate(535.000000, 137.000000)">
                <polygon id="Path" points="0 0 20 0 20 20 0 20"></polygon>
                <path d="M15,13.4 C14.3666667,13.4 13.8,13.65 13.3666667,14.0416667 L7.425,10.5833333 C7.46666667,10.3916667 7.5,10.2 7.5,10 C7.5,9.8 7.46666667,9.60833333 7.425,9.41666667 L13.3,5.99166667 C13.75,6.40833333 14.3416667,6.66666667 15,6.66666667 C16.3833333,6.66666667 17.5,5.55 17.5,4.16666667 C17.5,2.78333333 16.3833333,1.66666667 15,1.66666667 C13.6166667,1.66666667 12.5,2.78333333 12.5,4.16666667 C12.5,4.36666667 12.5333333,4.55833333 12.575,4.75 L6.7,8.175 C6.25,7.75833333 5.65833333,7.5 5,7.5 C3.61666667,7.5 2.5,8.61666667 2.5,10 C2.5,11.3833333 3.61666667,12.5 5,12.5 C5.65833333,12.5 6.25,12.2416667 6.7,11.825 L12.6333333,15.2916667 C12.5916667,15.4666667 12.5666667,15.65 12.5666667,15.8333333 C12.5666667,17.175 13.6583333,18.2666667 15,18.2666667 C16.3416667,18.2666667 17.4333333,17.175 17.4333333,15.8333333 C17.4333333,14.4916667 16.3416667,13.4 15,13.4 Z M15,3.33333333 C15.4583333,3.33333333 15.8333333,3.70833333 15.8333333,4.16666667 C15.8333333,4.625 15.4583333,5 15,5 C14.5416667,5 14.1666667,4.625 14.1666667,4.16666667 C14.1666667,3.70833333 14.5416667,3.33333333 15,3.33333333 Z M5,10.8333333 C4.54166667,10.8333333 4.16666667,10.4583333 4.16666667,10 C4.16666667,9.54166667 4.54166667,9.16666667 5,9.16666667 C5.45833333,9.16666667 5.83333333,9.54166667 5.83333333,10 C5.83333333,10.4583333 5.45833333,10.8333333 5,10.8333333 Z M15,16.6833333 C14.5416667,16.6833333 14.1666667,16.3083333 14.1666667,15.85 C14.1666667,15.3916667 14.5416667,15.0166667 15,15.0166667 C15.4583333,15.0166667 15.8333333,15.3916667 15.8333333,15.85 C15.8333333,16.3083333 15.4583333,16.6833333 15,16.6833333 Z" id="Shape" fill="#666666" fill-rule="nonzero"></path>
            </g>
        </g>
    </g>
</svg>