<?xml version="1.0" encoding="UTF-8"?>
<svg width="20px" height="20px" viewBox="0 0 20 20" version="1.1" xmlns="http://www.w3.org/2000/svg" xmlns:xlink="http://www.w3.org/1999/xlink">
    <title>public</title>
    <g id="icon" stroke="none" stroke-width="1" fill="none" fill-rule="evenodd">
        <g id="Artboard" transform="translate(-72.000000, -137.000000)">
            <g id="public" transform="translate(72.000000, 137.000000)">
                <rect id="Rectangle" x="0" y="0" width="20" height="20"></rect>
                <g id="event_note-24px">
                    <polygon id="Path" points="0 0 20 0 20 20 0 20"></polygon>
                    <path d="M15.8333333,2.5 L15,2.5 L15,0.833333333 L13.3333333,0.833333333 L13.3333333,2.5 L6.66666667,2.5 L6.66666667,0.833333333 L5,0.833333333 L5,2.5 L4.16666667,2.5 C3.25,2.5 2.5,3.25 2.5,4.16666667 L2.5,15.8333333 C2.5,16.75 3.25,17.5 4.16666667,17.5 L15.8333333,17.5 C16.75,17.5 17.5,16.75 17.5,15.8333333 L17.5,4.16666667 C17.5,3.25 16.75,2.5 15.8333333,2.5 Z M15.8333333,15.8333333 L4.16666667,15.8333333 L4.16666667,7.5 L15.8333333,7.5 L15.8333333,15.8333333 Z M4.16666667,5.83333333 L4.16666667,4.16666667 L15.8333333,4.16666667 L15.8333333,5.83333333 L4.16666667,5.83333333 Z M5.83333333,9.16666667 L14.1666667,9.16666667 L14.1666667,10.8333333 L5.83333333,10.8333333 L5.83333333,9.16666667 Z M5.83333333,12.5 L11.6666667,12.5 L11.6666667,14.1666667 L5.83333333,14.1666667 L5.83333333,12.5 Z" id="Shape" fill="#383F45" fill-rule="nonzero"></path>
                </g>
            </g>
        </g>
    </g>
</svg>